<svg xmlns="http://www.w3.org/2000/svg" width="63.997" height="63.997" viewBox="0 0 63.997 63.997"><defs><style>.a{fill:#8bb8c0;}</style></defs><g transform="translate(-0.001 0)"><g transform="translate(31.448 30.051)"><path class="a" d="M253.721,240.785a1.25,1.25,0,1,0,0,1.767A1.25,1.25,0,0,0,253.721,240.785Z" transform="translate(-251.587 -240.418)"/></g><g transform="translate(38.825 12.676)"><path class="a" d="M321.269,103.247a6.25,6.25,0,1,0,0,8.839A6.247,6.247,0,0,0,321.269,103.247Zm-1.768,7.071a3.75,3.75,0,1,1,0-5.3A3.755,3.755,0,0,1,319.5,110.318Z" transform="translate(-310.603 -101.415)"/></g><g transform="translate(12.003 0)"><g transform="translate(0 0)"><path class="a" d="M147.647.366A1.246,1.246,0,0,0,146.719,0a55.528,55.528,0,0,0-15.011,3.108,41.849,41.849,0,0,0-15.88,9.631c-.925.925-1.825,1.906-2.686,2.924-4.081-2.4-7.351-1.649-9.418-.543-4.76,2.547-7.706,9.464-7.706,14.411a1.25,1.25,0,0,0,2.134.884,7.957,7.957,0,0,1,6.618-2.22l.438.438a43.965,43.965,0,0,0-2.064,6.071,3.538,3.538,0,0,0,.151,2.171,11.837,11.837,0,0,0-3.375,2.38c-3.217,3.218-3.871,11.059-3.9,11.391A1.25,1.25,0,0,0,97.268,52q.049,0,.1,0c.332-.026,8.174-.679,11.391-3.9a11.837,11.837,0,0,0,2.379-3.375,3.53,3.53,0,0,0,2.172.15,43.969,43.969,0,0,0,6.07-2.064l.438.438a7.958,7.958,0,0,1-2.22,6.618A1.25,1.25,0,0,0,118.481,52c4.947,0,11.864-2.946,14.411-7.706,1.106-2.067,1.86-5.337-.543-9.418,1.018-.861,2-1.761,2.924-2.686A41.852,41.852,0,0,0,144.9,16.306a55.526,55.526,0,0,0,3.108-15.011A1.25,1.25,0,0,0,147.647.366ZM98.813,26.844c.776-3.758,3.032-7.881,6.092-9.519a6.66,6.66,0,0,1,6.656.314,50.539,50.539,0,0,0-5.252,8.561,1.318,1.318,0,0,0-.662-.389A10.683,10.683,0,0,0,98.813,26.844Zm8.178,19.483c-1.719,1.719-5.75,2.625-8.3,3,.37-2.548,1.277-6.58,3-8.3a9.008,9.008,0,0,1,3.2-2.1l4.206,4.206A9.006,9.006,0,0,1,106.99,46.327Zm5.7-3.878a1.173,1.173,0,0,1-1.092-.354l-2.448-2.448-3.228-3.228a1.174,1.174,0,0,1-.355-1.092,40.585,40.585,0,0,1,1.561-4.774l10.336,10.336A40.559,40.559,0,0,1,112.689,42.449Zm18,.661c-1.638,3.06-5.761,5.315-9.519,6.091a10.639,10.639,0,0,0,1.024-6.865,1.305,1.305,0,0,0-.38-.631,50.558,50.558,0,0,0,8.56-5.252A6.66,6.66,0,0,1,130.689,43.109Zm2.818-12.692a45.368,45.368,0,0,1-3.6,3.234,48.023,48.023,0,0,1-9.964,6.177L108.186,28.076a48.015,48.015,0,0,1,6.177-9.964,45.362,45.362,0,0,1,3.234-3.605A38.976,38.976,0,0,1,131.8,5.735l10.474,10.474A38.972,38.972,0,0,1,133.507,30.417Zm9.671-16.845-8.737-8.737a56.2,56.2,0,0,1,10.968-2.231A56.205,56.205,0,0,1,143.178,13.573Z" transform="translate(-96.018 0)"/></g></g><g transform="translate(24.378 51.263)"><path class="a" d="M200.689,410.487a1.25,1.25,0,0,0-1.768,0l-3.535,3.536a1.25,1.25,0,0,0,1.768,1.767l3.535-3.536A1.25,1.25,0,0,0,200.689,410.487Z" transform="translate(-195.021 -410.121)"/></g><g transform="translate(6.7 33.586)"><path class="a" d="M59.262,269.067a1.25,1.25,0,0,0-1.768,0L53.958,272.6a1.25,1.25,0,1,0,1.767,1.768l3.536-3.535A1.25,1.25,0,0,0,59.262,269.067Z" transform="translate(-53.592 -268.701)"/></g><g transform="translate(10.607 53.032)"><path class="a" d="M95.452,424.637a1.25,1.25,0,0,0-1.768,0L85.218,433.1a1.25,1.25,0,1,0,1.768,1.768l8.467-8.466A1.25,1.25,0,0,0,95.452,424.637Z" transform="translate(-84.851 -424.271)"/></g><g transform="translate(0.608 53.032)"><path class="a" d="M15.452,424.637a1.25,1.25,0,0,0-1.768,0L5.218,433.1a1.25,1.25,0,1,0,1.768,1.768l8.467-8.466A1.25,1.25,0,0,0,15.452,424.637Z" transform="translate(-4.851 -424.271)"/></g><g transform="translate(0.001 42.424)"><g transform="translate(0)"><path class="a" d="M10.6,339.776a1.25,1.25,0,0,0-1.768,0L.367,348.243a1.25,1.25,0,0,0,1.768,1.768l8.466-8.467A1.25,1.25,0,0,0,10.6,339.776Z" transform="translate(-0.001 -339.41)"/></g></g><g transform="translate(34.984 24.748)"><path class="a" d="M283.773,198.356a1.25,1.25,0,0,0-1.768,0l-1.767,1.767a1.25,1.25,0,0,0,1.768,1.768l1.767-1.767A1.25,1.25,0,0,0,283.773,198.356Z" transform="translate(-279.871 -197.99)"/></g></g></svg>