<svg xmlns="http://www.w3.org/2000/svg" width="56" height="56" viewBox="0 0 56 56"><defs><style>.a{fill:#8bb8c0;}</style></defs><path class="a" d="M26.167,41.333A15.167,15.167,0,1,1,41.333,26.167,15.184,15.184,0,0,1,26.167,41.333Zm0-28A12.833,12.833,0,1,0,39,26.167,12.848,12.848,0,0,0,26.167,13.333Z" transform="translate(14.667 14.667)"/><path class="a" d="M19.834,26.667a1.179,1.179,0,0,1-.826-.341L14.341,21.66a1.166,1.166,0,0,1,1.65-1.65l3.785,3.785,7.345-8.4a1.167,1.167,0,0,1,1.757,1.535l-8.167,9.333a1.175,1.175,0,0,1-.84.4h-.037Z" transform="translate(18.666 20)"/><path class="a" d="M22.167,45H5.833A5.84,5.84,0,0,1,0,39.167V8.833A5.84,5.84,0,0,1,5.833,3H10.5a1.167,1.167,0,0,1,0,2.333H5.833a3.5,3.5,0,0,0-3.5,3.5V39.167a3.5,3.5,0,0,0,3.5,3.5H22.167a1.167,1.167,0,0,1,0,2.333Z" transform="translate(0 4)"/><path class="a" d="M22.5,17a1.167,1.167,0,0,1-1.167-1.167v-7a3.5,3.5,0,0,0-3.5-3.5H13.167a1.167,1.167,0,0,1,0-2.333h4.667a5.84,5.84,0,0,1,5.833,5.833v7A1.167,1.167,0,0,1,22.5,17Z" transform="translate(16 4)"/><path class="a" d="M21.5,14H7.5A3.5,3.5,0,0,1,4,10.5V5.833A1.167,1.167,0,0,1,5.167,4.667H8.783a5.835,5.835,0,0,1,11.433,0h3.617A1.167,1.167,0,0,1,25,5.833V10.5A3.5,3.5,0,0,1,21.5,14ZM6.333,7v3.5A1.169,1.169,0,0,0,7.5,11.667h14A1.169,1.169,0,0,0,22.667,10.5V7h-3.5A1.167,1.167,0,0,1,18,5.833a3.5,3.5,0,0,0-7,0A1.167,1.167,0,0,1,9.833,7Z" transform="translate(5.333)"/><path class="a" d="M27.5,10.333H4.167A1.167,1.167,0,0,1,4.167,8H27.5a1.167,1.167,0,0,1,0,2.333Z" transform="translate(4 10.667)"/><path class="a" d="M20.5,13.333H4.167a1.167,1.167,0,0,1,0-2.333H20.5a1.167,1.167,0,0,1,0,2.333Z" transform="translate(4 14.667)"/><path class="a" d="M15.833,16.333H4.167a1.167,1.167,0,0,1,0-2.333H15.833a1.167,1.167,0,0,1,0,2.333Z" transform="translate(4 18.667)"/></svg>