<svg xmlns="http://www.w3.org/2000/svg" width="84.64" height="84.641" viewBox="0 0 84.64 84.641"><defs><style>.a{fill:#8bb8c0;}</style></defs><path class="a" d="M75.816,54.278H68.76a1.24,1.24,0,0,0,0,2.48h7.056a6.361,6.361,0,0,1,6.345,6.361v47.353a6.361,6.361,0,0,1-6.345,6.361H8.825a6.36,6.36,0,0,1-6.345-6.361v-8.777a1.24,1.24,0,1,0-2.48,0v8.777a8.843,8.843,0,0,0,8.825,8.841H34l-2.5,8.153H26a1.24,1.24,0,0,0,0,2.48H58.639a1.24,1.24,0,0,0,0-2.48h-5.5l-2.5-8.153H75.815a8.843,8.843,0,0,0,8.825-8.841V63.119a8.843,8.843,0,0,0-8.825-8.841ZM34.093,127.466l2.5-8.153H48.051l2.5,8.153Z" transform="translate(0 -45.305)"/><path class="a" d="M1.24,97.168a1.24,1.24,0,0,0,1.24-1.24V63.12a6.36,6.36,0,0,1,6.345-6.361h3.6a1.24,1.24,0,0,0,0-2.48h-3.6A8.843,8.843,0,0,0,0,63.12V95.928a1.24,1.24,0,0,0,1.24,1.24Z" transform="translate(0 -45.306)"/><path class="a" d="M433.742,86.694a3.927,3.927,0,0,0-3.92-3.926h-4.413a1.24,1.24,0,1,0,0,2.48h4.413a1.445,1.445,0,0,1,1.441,1.446v24.312a1.24,1.24,0,1,0,2.48,0Z" transform="translate(-354.048 -69.085)"/><path class="a" d="M104.671,129.335V116.842a1.24,1.24,0,1,0-2.48,0v12.493a1.445,1.445,0,0,1-1.441,1.446H33.844a1.445,1.445,0,0,1-1.441-1.446V86.694a1.445,1.445,0,0,1,1.441-1.446h2.335a1.24,1.24,0,1,0,0-2.48H33.844a3.927,3.927,0,0,0-3.92,3.926v42.641a3.927,3.927,0,0,0,3.92,3.926h66.906A3.927,3.927,0,0,0,104.671,129.335Z" transform="translate(-24.977 -69.085)"/><path class="a" d="M57.795,402.976a1.24,1.24,0,0,0,0,2.48H62.86a1.24,1.24,0,0,0,0-2.48Z" transform="translate(-47.206 -336.359)"/><path class="a" d="M117.795,402.976a1.24,1.24,0,0,0,0,2.48h5.065a1.24,1.24,0,0,0,0-2.48Z" transform="translate(-97.287 -336.359)"/><path class="a" d="M112.809,56.842a28.437,28.437,0,0,0,24.508-13.986,1.24,1.24,0,0,0-2.135-1.262,26.107,26.107,0,0,1-5.731,6.739q-1.529-.688-3.17-1.239a38.99,38.99,0,0,0,4.335-17.433h8.128a25.818,25.818,0,0,1-1.343,7.1,1.24,1.24,0,1,0,2.348.8A28.438,28.438,0,0,0,112.809,0,28.165,28.165,0,0,0,99.925,3.076a28.709,28.709,0,0,0-9.2,7.432,4.13,4.13,0,0,0-4.139,6.884,28.166,28.166,0,0,0-2.221,11.029,28.465,28.465,0,0,0,28.445,28.421ZM86.873,29.661H95a38.99,38.99,0,0,0,4.335,17.433q-1.632.548-3.158,1.234A25.9,25.9,0,0,1,86.873,29.661ZM98.481,50.046q1.061-.421,2.174-.774a21.845,21.845,0,0,0,2.713,3.316A25.926,25.926,0,0,1,98.481,50.046Zm13.089,4.232c-3.064-.422-5.967-2.4-8.38-5.708a41.1,41.1,0,0,1,8.38-1.076Zm0-9.264a43.221,43.221,0,0,0-9.8,1.356,36.081,36.081,0,0,1-4.289-16.708H111.57v3.4a4.131,4.131,0,0,0,0,7.884v4.069Zm2.48,9.264V47.494a41.1,41.1,0,0,1,8.38,1.076C120.016,51.877,117.113,53.856,114.049,54.277Zm13.1-4.227q-.626.415-1.276.794a25.723,25.723,0,0,1-3.63,1.75,21.833,21.833,0,0,0,2.72-3.323Q126.082,49.627,127.149,50.051Zm1.4-28.772a1.652,1.652,0,1,1,1.655-1.652A1.655,1.655,0,0,1,128.55,21.279Zm10.2,5.9h-8.128c-.035-1.29-.123-2.574-.264-3.837a4.131,4.131,0,0,0-1.646-7.847,32.926,32.926,0,0,0-2.424-5.75q1.632-.548,3.158-1.233A25.9,25.9,0,0,1,138.745,27.181ZM127.137,6.8q-1.061.421-2.174.774a22.3,22.3,0,0,0-2.26-2.842q-.232-.246-.469-.48A25.912,25.912,0,0,1,127.137,6.8ZM114.049,2.567c3.081.434,6,2.47,8.373,5.708a41.1,41.1,0,0,1-8.373,1.074Zm0,9.262a43.231,43.231,0,0,0,9.8-1.355,29.834,29.834,0,0,1,2.467,5.68,4.13,4.13,0,0,0,1.585,7.553c.126,1.144.205,2.306.238,3.475H114.049Zm0,17.832h14.087a36.084,36.084,0,0,1-4.289,16.708,43.231,43.231,0,0,0-9.8-1.356V40.944a4.131,4.131,0,0,0,0-7.884Zm-1.24,5.689A1.652,1.652,0,1,1,111.155,37,1.655,1.655,0,0,1,112.809,35.35Zm-1.24-32.785V9.348a41.1,41.1,0,0,1-8.392-1.078c2.369-3.243,5.284-5.275,8.392-5.7Zm-10.52,2.721q1.165-.592,2.368-1.06a21.754,21.754,0,0,0-2.76,3.345q-1.119-.355-2.187-.779A25.719,25.719,0,0,1,101.049,5.286ZM89.485,12.8A1.652,1.652,0,1,1,87.83,14.45,1.655,1.655,0,0,1,89.485,12.8ZM88.8,18.525a4.13,4.13,0,0,0,3.963-6.591,26.22,26.22,0,0,1,3.407-3.423Q97.7,9.2,99.336,9.748a33.972,33.972,0,0,0-2.953,7.569,1.24,1.24,0,1,0,2.4.633,31.347,31.347,0,0,1,2.979-7.479,43.215,43.215,0,0,0,9.809,1.358V27.182H97.482c.037-1.288.13-2.57.278-3.824a1.24,1.24,0,0,0-2.463-.292c-.16,1.351-.259,2.73-.3,4.116H86.872A25.63,25.63,0,0,1,88.8,18.525Z" transform="translate(-70.417)"/><path class="a" d="M76.033,298.688H70.72a1.24,1.24,0,1,0,0,2.48h5.313a1.24,1.24,0,1,0,0-2.48Z" transform="translate(-57.994 -249.311)"/><path class="a" d="M69.48,334.928a1.24,1.24,0,0,0,1.24,1.24h8.614a1.24,1.24,0,1,0,0-2.48H70.72A1.24,1.24,0,0,0,69.48,334.928Z" transform="translate(-57.994 -278.525)"/></svg>
