<svg xmlns="http://www.w3.org/2000/svg" width="26.279" height="26.279" viewBox="0 0 26.279 26.279"><defs><style>.a{fill:#fbca9a;}</style></defs><path class="a" d="M13.14,0a13.14,13.14,0,1,0,13.14,13.14A13.155,13.155,0,0,0,13.14,0Zm0,24.55A11.41,11.41,0,1,1,24.55,13.14,11.423,11.423,0,0,1,13.14,24.55Z"/><path class="a" d="M77.294,36.648V31.738a2.487,2.487,0,0,1,1.213.966.865.865,0,1,0,1.444-.951,4.209,4.209,0,0,0-2.657-1.809V28.571a.865.865,0,1,0-1.729,0v1.371a4.218,4.218,0,0,0,0,8.258v4.909a2.487,2.487,0,0,1-1.213-.966.865.865,0,1,0-1.444.951A4.209,4.209,0,0,0,75.565,44.9v1.373a.865.865,0,1,0,1.729,0V44.905a4.218,4.218,0,0,0,0-8.258ZM73.938,34.07a2.49,2.49,0,0,1,1.627-2.331V36.4A2.49,2.49,0,0,1,73.938,34.07Zm3.356,9.037V38.445a2.484,2.484,0,0,1,0,4.663Z" transform="translate(-63.29 -24.284)"/></svg>