<svg xmlns="http://www.w3.org/2000/svg" width="33.583" height="33.584" viewBox="0 0 33.583 33.584"><defs><style>.a{fill:#fbca9a;}</style></defs><g transform="translate(-0.006)"><g transform="translate(1.685)"><path class="a" d="M30.646,0a5.037,5.037,0,1,0,5.037,5.037A5.044,5.044,0,0,0,30.646,0Zm0,8.4A3.358,3.358,0,1,1,34,5.038,3.358,3.358,0,0,1,30.646,8.4Z" transform="translate(-25.609)"/></g><g transform="translate(13.439 8.396)"><path class="a" d="M223.279,128H206.488a1.679,1.679,0,0,0-1.679,1.679v1.282l1.679.84v-2.122h16.791v13.432H206.488v-2l-1.679-.419v2.415a1.679,1.679,0,0,0,1.679,1.679H213.4l-4.275,7.125a.839.839,0,0,0,1.44.863l3.478-5.8v5.365a.84.84,0,0,0,1.679,0v-5.365l3.478,5.8a.839.839,0,0,0,.72.408.824.824,0,0,0,.432-.12.838.838,0,0,0,.289-1.151l-4.275-7.125h6.913a1.679,1.679,0,0,0,1.679-1.679V129.679A1.679,1.679,0,0,0,223.279,128Z" transform="translate(-204.809 -128)"/></g><g transform="translate(0.006 11.754)"><g transform="translate(0)"><path class="a" d="M29.358,180.649a.833.833,0,0,0-1.038-.575l-10.361,2.96a1.676,1.676,0,0,0-.411-.3l-6.717-3.358a1.682,1.682,0,0,0-.751-.177H3.364a1.68,1.68,0,0,0-1.652,1.379L.033,189.814a1.679,1.679,0,0,0,1.652,1.98H2.758l.612,7.689a1.678,1.678,0,0,0,1.674,1.546H8.4a1.679,1.679,0,0,0,1.669-1.493l1.467-13.2,4.853,1.213a1.679,1.679,0,0,0,2.086-1.629v-1.286l10.306-2.945A.838.838,0,0,0,29.358,180.649ZM16.8,185.917l-6.717-1.679L8.4,199.35H5.044l-.734-9.235H1.685l1.679-9.235H5.883v5.108a.84.84,0,0,0,1.679,0V180.88h2.519l6.717,3.358Z" transform="translate(-0.006 -179.201)"/></g></g></g></svg>