<svg xmlns="http://www.w3.org/2000/svg" width="24" height="24" viewBox="0 0 24 24"><defs><style>.a{fill:#fbca9a;}</style></defs><path class="a" d="M22.25,0H1.75A1.752,1.752,0,0,0,0,1.75v2.5A1.752,1.752,0,0,0,1.75,6h20.5A1.752,1.752,0,0,0,24,4.25V1.75A1.752,1.752,0,0,0,22.25,0Z"/><path class="a" d="M.75,11.5h14.5a.75.75,0,0,0,0-1.5H.75a.75.75,0,0,0,0,1.5Z"/><path class="a" d="M.75,14.5h14.5a.75.75,0,0,0,0-1.5H.75a.75.75,0,0,0,0,1.5Z"/><path class="a" d="M.75,20.5h14.5a.75.75,0,0,0,0-1.5H.75a.75.75,0,0,0,0,1.5Z"/><path class="a" d="M.75,23.5h14.5a.75.75,0,0,0,0-1.5H.75a.75.75,0,0,0,0,1.5Z"/><circle class="a" cx="3" cy="3" r="3" transform="translate(18 9)"/><circle class="a" cx="3" cy="3" r="3" transform="translate(18 18)"/></svg>