<svg xmlns="http://www.w3.org/2000/svg" width="106.343" height="74.84" viewBox="0 0 106.343 74.84"><defs><style>.a{opacity:0.78;}.b{fill:#fff;}</style></defs><g class="a" transform="translate(0)"><path class="b" d="M102.2,52.341c-3.839-4.563-10.926-6.424-24.461-6.424H28.6c-13.845,0-21.052,1.981-24.876,6.84C0,57.493,0,64.472,0,74.132V92.543c0,18.713,4.424,28.214,28.6,28.214H77.737c11.738,0,18.242-1.642,22.449-5.669,4.315-4.13,6.156-10.872,6.156-22.545V74.132C106.343,63.945,106.054,56.925,102.2,52.341ZM68.272,85.879,45.962,97.539a3.43,3.43,0,0,1-5.019-3.04V71.253a3.43,3.43,0,0,1,5.011-3.044L68.265,79.794a3.43,3.43,0,0,1,.008,6.085Z" transform="translate(0 -45.917)"/></g></svg>