<svg xmlns="http://www.w3.org/2000/svg" width="132" height="118" viewBox="0 0 132 118"><defs><style>.a{fill:#fff;stroke:#8bb8c0;stroke-dasharray:9;}.b{fill:#8bb8c0;}.c{stroke:none;}.d{fill:none;}</style></defs><g transform="translate(-424 -1895)"><g class="a" transform="translate(424 1895)"><rect class="c" width="132" height="118" rx="5"/><rect class="d" x="0.5" y="0.5" width="131" height="117" rx="4.5"/></g><g transform="translate(463 1939)"><path class="b" d="M29.621,0H5.782A5.788,5.788,0,0,0,0,5.782v19.19a5.788,5.788,0,0,0,5.782,5.782H29.621A5.788,5.788,0,0,0,35.4,24.972V5.782A5.788,5.788,0,0,0,29.621,0ZM33.09,24.972a3.473,3.473,0,0,1-3.469,3.469H5.782a3.473,3.473,0,0,1-3.469-3.469V5.782A3.473,3.473,0,0,1,5.782,2.313H29.621A3.473,3.473,0,0,1,33.09,5.782Zm0,0"/><path class="b" d="M345.952,24.872a1.156,1.156,0,0,0-1.161.009L332.005,32.43a1.157,1.157,0,0,0-.568,1V40.4a1.156,1.156,0,0,0,.447.914l12.785,9.926a1.156,1.156,0,0,0,1.866-.913V25.876a1.157,1.157,0,0,0-.583-1Zm-1.73,23.092-10.473-8.13V34.086L344.222,27.9Zm0,0" transform="translate(-293.11 -21.861)"/></g></g></svg>