<svg xmlns="http://www.w3.org/2000/svg" width="80.273" height="68.241" viewBox="0 0 80.273 68.241"><defs><style>.a{fill:#e8f1f3;}.b{fill:#077082;}</style></defs><g transform="translate(-702 -1369.818)"><path class="a" d="M240.97,1016.432c-15.346,2.835-32.673-8.527-27.227,10.374s-16.336,32.13,0,43,13.861,16.065,27.227,11.813,26.237-7.56,27.722-18.428,3.96-19.373-2.475-26.933c-1.841-2.162-.856-13.035-3.58-16.6C256.218,1011.263,240.97,1016.432,240.97,1016.432Z" transform="translate(511.847 354.96)"/><g transform="translate(699.76 1371.839)"><path class="b" d="M38,13H35V10a1,1,0,0,0-1-1H30a1,1,0,0,0-1,1v3H26a1,1,0,0,0-1,1v4a1,1,0,0,0,1,1h3v3a1,1,0,0,0,1,1h4a1,1,0,0,0,1-1V19h3a1,1,0,0,0,1-1V14A1,1,0,0,0,38,13Zm-1,4H34a1,1,0,0,0-1,1v3H31V18a1,1,0,0,0-1-1H27V15h3a1,1,0,0,0,1-1V11h2v3a1,1,0,0,0,1,1h3Z"/><path class="b" d="M59.73,18.36a4.579,4.579,0,0,0,.03-.53,4.02,4.02,0,0,0-3.18-3.91,4.071,4.071,0,0,0-4.7,2.97l-4.4,12.66a1.631,1.631,0,0,0-.19.09l-8.84,5.18A9.017,9.017,0,0,0,34,42.58V52a1,1,0,0,0-1,1v8a1,1,0,0,0,1,1H48a1,1,0,0,0,1-1V53a1,1,0,0,0-1-1V49.8a3.039,3.039,0,0,1,1-2.24l6.76-6.01a4.931,4.931,0,0,0,1.52-2.45l4.34-16.23a3.955,3.955,0,0,0,.14-1.04,4.019,4.019,0,0,0-2.03-3.47Zm-5.94-.88a2.113,2.113,0,0,1,2.38-1.6,2,2,0,0,1,1.59,1.95v.02a4.1,4.1,0,0,0-3.89,3.06l-2.79,8.61a4.2,4.2,0,0,0-1.34-.38ZM47,60H35V54H47ZM59.69,22.35,55.34,38.59a2.981,2.981,0,0,1-.9,1.46l-6.77,6.01A5.056,5.056,0,0,0,46,49.8V52H36V42.58a7.052,7.052,0,0,1,3.46-6.04l8.83-5.17a2,2,0,0,1,2.74.73,2.06,2.06,0,0,1,.2,1.52,2,2,0,0,1-.94,1.21l-5.73,3.31a1,1,0,0,0,1,1.73l5.73-3.31a3.948,3.948,0,0,0,1.87-2.43,4.007,4.007,0,0,0-.4-3.03l-.06-.09,3.09-9.53a2.113,2.113,0,0,1,2.38-1.6,2,2,0,0,1,1.59,1.95A1.722,1.722,0,0,1,59.69,22.35Z"/><path class="b" d="M30,52V42.58a9.017,9.017,0,0,0-4.45-7.76l-8.84-5.19c-.06-.03-.13-.05-.19-.08L12.15,16.96a4.107,4.107,0,0,0-4.73-3.04,4.02,4.02,0,0,0-3.18,3.91,4.578,4.578,0,0,0,.03.53,4.019,4.019,0,0,0-2.03,3.47,4.421,4.421,0,0,0,.13,1.04L6.72,39.09a4.916,4.916,0,0,0,1.52,2.46l6.75,6.01A3.012,3.012,0,0,1,16,49.8V52a1,1,0,0,0-1,1v8a1,1,0,0,0,1,1H30a1,1,0,0,0,1-1V53A1,1,0,0,0,30,52ZM6.24,17.83a2,2,0,0,1,1.58-1.95,2.161,2.161,0,0,1,2.42,1.67l4.02,11.59a4.2,4.2,0,0,0-1.34.38l-2.77-8.56a4.149,4.149,0,0,0-3.91-3.11ZM16.32,46.06,9.56,40.05a2.965,2.965,0,0,1-.9-1.47L4.3,22.35a2.121,2.121,0,0,1-.06-.52,2,2,0,0,1,1.58-1.95,2.144,2.144,0,0,1,2.41,1.65l3.07,9.48-.06.09a4.007,4.007,0,0,0-.4,3.03,3.948,3.948,0,0,0,1.87,2.43l5.73,3.31a1,1,0,0,0,1-1.73l-5.73-3.31a2,2,0,0,1-.94-1.21,2.06,2.06,0,0,1,.2-1.52,2,2,0,0,1,2.73-.74l8.84,5.18A7.052,7.052,0,0,1,28,42.58V52H18V49.8A5.03,5.03,0,0,0,16.32,46.06ZM29,60H17V54H29Z"/><path class="b" d="M46.147,5.132A9.994,9.994,0,0,0,32,5.132h0A10,10,0,1,0,17.854,19.267l13.44,13.44a1,1,0,0,0,1.414,0l13.44-13.44a10.006,10.006,0,0,0,0-14.135ZM32,30.586,19.267,17.853A8,8,0,0,1,24.93,4.2a7.916,7.916,0,0,1,5.653,2.347l.71.71a1,1,0,0,0,1.414,0l.712-.712A8,8,0,0,1,44.733,17.851Z"/></g></g></svg>