<svg xmlns="http://www.w3.org/2000/svg" width="71.718" height="73.188" viewBox="0 0 71.718 73.188"><defs><style>.a{fill:#fbca9a;}.b{fill:#58c3e8;}.c{fill:#49bd90;}.d{fill:#fa70b2;}.e{fill:#fffaf5;}.f{fill:#ef8930;}.g{fill:#3e4b5c;}.h{fill:#8bb8c0;}.i{fill:#2797ab;}.j{fill:#243142;}</style></defs><g transform="translate(-1433.717 -1106.125)"><path class="a" d="M5735.943,1159.693s9.762-5.125,16.351-4.393,9.151-.366,10.249,2.928,1.464,4.026-1.1,5.735-6.345,4.637-7.809,8.053-1.83,7.809,1.464,9.273,8.419,4.393,13.543,3.416,16.35-1.708,17.814,0,3.416,3.172,1.464,8.907-3.05,13.3-6.223,16.228-9.639,9.883-16.35,11.958-18.3,2.928-26.355-1.1-13.666-12.079-15.374-15.13-5.979-12.2-4.148-18.912,2.929-13.3,7.2-18.18A77.022,77.022,0,0,1,5735.943,1159.693Z" transform="translate(-4285.308 -46.665)"/><g transform="translate(1433.717 1106.125)"><path class="b" d="M258.7,369.057a6.115,6.115,0,1,1-6.115-6.116A6.115,6.115,0,0,1,258.7,369.057Zm0,0" transform="translate(-211.312 -311.06)"/><path class="c" d="M138.5,339.284a6.116,6.116,0,1,1-6.116-6.116A6.116,6.116,0,0,1,138.5,339.284Zm0,0" transform="translate(-108.292 -285.543)"/><path class="d" d="M67.392,234.92a6.116,6.116,0,1,1-6.115-6.115A6.116,6.116,0,0,1,67.392,234.92Zm0,0" transform="translate(-47.347 -196.098)"/><path class="e" d="M103.106,114.353a6.116,6.116,0,1,1-6.116-6.115A6.116,6.116,0,0,1,103.106,114.353Zm0,0" transform="translate(-77.956 -92.766)"/><path class="a" d="M390.753,202.005l-1.029,13.19-2.183,27.987a1.922,1.922,0,0,1-1,1.429,4.227,4.227,0,0,1-2.225.575c-1.719-.007-3.131-.9-3.21-2.031l-1.948-28-.918-13.2Zm0,0" transform="translate(-324.242 -173.085)"/><path class="f" d="M385.864,244.93c-1.132-.3-1.945-1.022-2.005-1.872l-2.092-41.09-3.53-.015.919,13.2,1.947,28c.078,1.13,1.491,2.023,3.209,2.03A4.538,4.538,0,0,0,385.864,244.93Zm0,0" transform="translate(-324.242 -173.085)"/><path class="g" d="M389.724,215.2l1.029-13.19-8.986-.037-3.529-.016.918,13.2,3.283.013Zm0,0" transform="translate(-324.242 -173.085)"/><path class="h" d="M350.058,35.384c-5.727-2.574-6.329-11.184-1.207-16.262s7.365-8.089,7.38-11.52c0,0,18.458,18.9,6.341,27.835Zm0,0" transform="translate(-296.063 -6.515)"/><path class="i" d="M355.242,35.4l-5.181-.022c-5.726-2.574-6.329-11.183-1.207-16.261s7.366-8.091,7.38-11.521C358.088,17.815,347.807,23.865,355.242,35.4Zm0,0" transform="translate(-296.065 -6.515)"/><path class="j" d="M382.439,215.164l-.672-13.2-3.529-.016.918,13.2Zm0,0" transform="translate(-324.242 -173.085)"/><path d="M251.669,365.185a1.087,1.087,0,0,0,1.335-.76,7.2,7.2,0,1,0-2.237,3.55,1.086,1.086,0,1,0-1.422-1.643,4.979,4.979,0,0,1-2,1.055,5.026,5.026,0,1,1,3.565-3.537A1.087,1.087,0,0,0,251.669,365.185Zm0,0" transform="translate(-204.78 -304.529)"/><path d="M122.233,338.979a7.153,7.153,0,0,0,3.608.979,7.239,7.239,0,0,0,1.855-.243,7.2,7.2,0,1,0-5.463-.736Zm-.728-8.754a5,5,0,0,1,3.061-2.334,5.06,5.06,0,0,1,1.295-.17,5.032,5.032,0,1,1-4.356,2.5Zm0,0" transform="translate(-101.759 -279.012)"/><path d="M60.984,232.02a7.194,7.194,0,1,0-6.238,3.585,7.24,7.24,0,0,0,1.855-.243A7.155,7.155,0,0,0,60.984,232.02Zm-1.878-1.092a5.029,5.029,0,1,1,.514-3.815A5,5,0,0,1,59.105,230.928Zm0,0" transform="translate(-40.829 -189.578)"/><path d="M94.078,101.6a7.2,7.2,0,1,0-3.632,13.431,7.25,7.25,0,0,0,1.855-.243A7.2,7.2,0,0,0,94.078,101.6Zm.728,8.754a5.029,5.029,0,1,1-5.635-7.39,5.066,5.066,0,0,1,1.3-.169,5.031,5.031,0,0,1,4.34,7.559Zm0,0" transform="translate(-71.424 -86.234)"/><path d="M72.179,21.914C72.964,12.244,61.917.81,61.447.327a1.087,1.087,0,0,0-1.864.754C59.569,4.269,57.2,7.2,52.524,11.835a12.736,12.736,0,0,0-3.631,11.129,9.211,9.211,0,0,0,4.563,6.6l.027.385-.315.083a21.47,21.47,0,0,1-9.269.36c-4.119-.813-7.028-3-7.784-5.854-1.025-3.87,1.95-8.426,7.4-11.338a5.958,5.958,0,0,0,3.132-4.774,6.229,6.229,0,0,0-5.387-6.687,39.449,39.449,0,0,0-14.888.695,33.882,33.882,0,0,0-9.567,4.194,1.087,1.087,0,0,0,1.169,1.832A31.7,31.7,0,0,1,26.93,4.531,37.268,37.268,0,0,1,40.976,3.89a4.059,4.059,0,0,1,3.508,4.358,3.785,3.785,0,0,1-1.99,3.033A18.635,18.635,0,0,0,35.514,17.4a9.523,9.523,0,0,0-1.5,7.689c.988,3.729,4.437,6.437,9.463,7.429a21.2,21.2,0,0,0,4.1.389,25.285,25.285,0,0,0,6.057-.759l.519,7.463-.144.036a6.094,6.094,0,0,0,.978,11.958l.843,12.123A33.443,33.443,0,0,1,3.677,44.814,33.751,33.751,0,0,1,15.344,10.33,1.086,1.086,0,1,0,14,8.626,35.921,35.921,0,0,0,1.569,45.341a35.68,35.68,0,0,0,34.5,27.009A35.867,35.867,0,0,0,45.3,71.134a35.237,35.237,0,0,0,10.705-4.871l.27,3.882c.119,1.725,1.963,3.033,4.288,3.043h.026a5.307,5.307,0,0,0,2.777-.739,2.964,2.964,0,0,0,1.514-2.267l1.1-14.1a35.668,35.668,0,0,0,5.784-19.108c0-.153,0-.314-.012-.477a9.547,9.547,0,0,0-3.669-7.032A10.455,10.455,0,0,0,72.179,21.914Zm-21.147.662a10.533,10.533,0,0,1,3.023-9.2c4.02-3.986,6.48-6.874,7.348-9.854,2.952,3.442,9.153,11.534,8.611,18.214a8.279,8.279,0,0,1-3.365,6.095l-11.908-.05A6.934,6.934,0,0,1,51.032,22.576Zm4.63,7.385L65.837,30,64.978,41.02l-8.549-.036ZM51.78,46.544a3.927,3.927,0,0,1,2.528-4.715l.526,7.562A3.9,3.9,0,0,1,51.78,46.544Zm10.936,23.47a.925.925,0,0,1-.494.59,3.169,3.169,0,0,1-1.63.411h-.016c-1.258-.005-2.1-.607-2.13-1.02L56.579,43.157l8.229.035Zm6.869-33.395c.007.116.009.226.008.33a33.362,33.362,0,0,1-3.208,13.958L67.843,32.23A7.389,7.389,0,0,1,69.586,36.619Zm0,0" transform="translate(-0.501 0)"/></g></g></svg>