<svg xmlns="http://www.w3.org/2000/svg" width="132" height="118" viewBox="0 0 132 118"><defs><style>.a{fill:#fff;stroke:#8bb8c0;stroke-dasharray:9;}.b{fill:#8bb8c0;}.c{stroke:none;}.d{fill:none;}</style></defs><g transform="translate(-250 -1895)"><g class="a" transform="translate(250 1895)"><rect class="c" width="132" height="118" rx="5"/><rect class="d" x="0.5" y="0.5" width="131" height="117" rx="4.5"/></g><g transform="translate(295 1908.424)"><g transform="translate(0 26.576)"><g transform="translate(0 0)"><path class="b" d="M178.351,159.668a4.362,4.362,0,1,0,4.362,4.362A4.362,4.362,0,0,0,178.351,159.668Zm0,6.646a2.285,2.285,0,0,1,0-4.57h0a2.285,2.285,0,1,1,0,4.57Z" transform="translate(-156.696 -146.44)"/><path class="b" d="M39.049,29.834,10.7,26.615a3.894,3.894,0,0,0-3.064.883,3.946,3.946,0,0,0-1.506,2.7l-.519,4.258H4a4.173,4.173,0,0,0-4,4.31V60a3.946,3.946,0,0,0,3.841,4.049q.079,0,.158,0H32.507A4.262,4.262,0,0,0,36.869,60v-.831a5.192,5.192,0,0,0,1.973-.831,4.31,4.31,0,0,0,1.506-2.8l2.389-21.082A4.206,4.206,0,0,0,39.049,29.834ZM34.792,60a2.186,2.186,0,0,1-2.285,1.973H4a1.869,1.869,0,0,1-1.923-1.814q0-.08,0-.16V56.16l8.049-5.92a2.492,2.492,0,0,1,3.219.156l5.66,4.985a4.881,4.881,0,0,0,3.064,1.142,4.725,4.725,0,0,0,2.492-.675l10.229-5.92V60Zm0-12.514-11.32,6.595a2.648,2.648,0,0,1-3.064-.26L14.7,48.787a4.621,4.621,0,0,0-5.764-.208L2.078,53.564v-14.8A2.1,2.1,0,0,1,4,36.532H32.507a2.389,2.389,0,0,1,2.285,2.233Zm5.87-13.314c0,.007,0,.014,0,.021l-2.44,21.082a1.765,1.765,0,0,1-.675,1.4c-.208.208-.675.312-.675.415V38.765a4.466,4.466,0,0,0-4.362-4.31H7.686l.467-4.05a2.389,2.389,0,0,1,.779-1.35,2.389,2.389,0,0,1,1.558-.415l28.3,3.271A2.077,2.077,0,0,1,40.661,34.175Z" transform="translate(0 -26.576)"/></g></g></g></g></svg>