<svg xmlns="http://www.w3.org/2000/svg" width="83.273" height="68.241" viewBox="0 0 83.273 68.241"><defs><style>.a{fill:#e8f1f3;}.b{fill:#077082;}</style></defs><g transform="translate(-267 -1369.818)"><path class="a" d="M240.97,1016.432c-15.346,2.835-32.673-8.527-27.227,10.374s-16.336,32.13,0,43,13.861,16.065,27.227,11.813,26.237-7.56,27.722-18.428,3.96-19.373-2.475-26.933c-1.841-2.162-.856-13.035-3.58-16.6C256.218,1011.263,240.97,1016.432,240.97,1016.432Z" transform="translate(79.847 354.96)"/><g transform="translate(267 1374.648)"><path class="b" d="M6.942,38.574a3.213,3.213,0,0,0-1.921,1.649c-.906,1.567-1.509,4.55-.486,8.222a1,1,0,0,0,1.927-.537,9.2,9.2,0,0,1,.291-6.685,1.438,1.438,0,0,1,.687-.711,1,1,0,0,0-.5-1.938Z"/><path class="b" d="M24.5,36A3.5,3.5,0,1,0,21,32.5,3.5,3.5,0,0,0,24.5,36Zm0-5A1.5,1.5,0,1,1,23,32.5,1.5,1.5,0,0,1,24.5,31Z"/><circle class="b" cx="1" cy="1" r="1" transform="translate(15 10)"/><circle class="b" cx="1" cy="1" r="1" transform="translate(22 39)"/><circle class="b" cx="1" cy="1" r="1" transform="translate(23 44)"/><circle class="b" cx="1" cy="1" r="1" transform="translate(12 13)"/><path class="b" d="M59.614,53.182,46.357,39.924l2.627-23.595A3,3,0,0,0,46,13H41.218L42.83,8.64l9.743-6.821A1,1,0,0,0,51.427.181l-10,7a1,1,0,0,0-.365.472L39.086,13h-16.8a16.161,16.161,0,0,0-3.36-5.9,6.942,6.942,0,0,0-2.915-1.74,8.117,8.117,0,0,0,.756-3.221,2,2,0,0,0-.58-1.485A1.972,1.972,0,0,0,14.7.072,6.886,6.886,0,0,0,10.092,1.8a6.206,6.206,0,0,0-1.6,3.413C5.8,2.792,4.464,2.566,4.082,2.566a1.034,1.034,0,0,0-1.041,1,.965.965,0,0,0,.959,1c.011,0,.934.167,3.024,2.018a6.143,6.143,0,0,0-3.3,1.582A6.873,6.873,0,0,0,2,12.771a1.991,1.991,0,0,0,1.991,2.07h.077a8.135,8.135,0,0,0,3.222-.756A6.862,6.862,0,0,0,9.033,17a16.363,16.363,0,0,0,6.45,3.53l1.05,9.445a8.058,8.058,0,0,0-1.773,1.812,4.923,4.923,0,0,0-.366-.391,7.808,7.808,0,0,0-3.48-1.806c-1.835-.453-4.862-.018-7.077.43a1.67,1.67,0,0,0-.75,2.91c.722.613,1.569,1.289,2.444,1.907A7.22,7.22,0,0,0,1.558,38.22c-1.7,2.944-2.032,7.168-.881,11.3C2.4,55.668,6.936,60,11.306,60a6.364,6.364,0,0,0,1.591-.2,6.444,6.444,0,0,0,1.089-.389,6.346,6.346,0,0,0,1.087.389,7.415,7.415,0,0,0,5.289-.77,2.988,2.988,0,0,0,2.2.971H41.44a3.01,3.01,0,0,0,2.181-.95,15.969,15.969,0,0,0,5.4.95h.057a15.928,15.928,0,0,0,10.415-3.869,2.047,2.047,0,0,0,.707-1.468,1.972,1.972,0,0,0-.581-1.481ZM46.592,42.988l-7.544-.009a9.91,9.91,0,0,1,2.2-5.336Zm.006,2L41.266,50.32a9.982,9.982,0,0,1-2.22-5.341ZM48.012,46.4l.01,7.552a9.988,9.988,0,0,1-5.342-2.22Zm2.01,7.551-.01-7.545,5.345,5.345a9.921,9.921,0,0,1-5.335,2.2ZM46,15a1.007,1.007,0,0,1,1,1.109l-.746,6.7-2.707,1.356a8,8,0,0,1-6.539.237L40.479,15ZM35.156,23.635A9.976,9.976,0,0,0,32,23.11a9.858,9.858,0,0,0-4.447,1.045,7.985,7.985,0,0,1-7.106,0l-2.7-1.349L17,16.11A1.006,1.006,0,0,1,18,15H38.347ZM11.506,3.213a5.142,5.142,0,0,1,3.264-1.15,5.091,5.091,0,0,1-1.143,3.272,5,5,0,0,1-3.263,1.142A5,5,0,0,1,11.506,3.213ZM4,12.84A5.082,5.082,0,0,1,5.142,9.577,4.993,4.993,0,0,1,8.4,8.436,5.019,5.019,0,0,1,7.264,11.7,5.076,5.076,0,0,1,4,12.84Zm6.444,2.74A4.881,4.881,0,0,1,9.05,12.691,7.352,7.352,0,0,0,10.4,8.473a7.362,7.362,0,0,0,4.2-1.355,4.922,4.922,0,0,1,2.908,1.4A13.788,13.788,0,0,1,20.167,13H18a3,3,0,0,0-2.984,3.33l.225,2.021a13.969,13.969,0,0,1-4.8-2.771Zm6.364,16.858.316,2.843A10.24,10.24,0,0,0,16,35.889a3.636,3.636,0,0,1-.874.4A7.355,7.355,0,0,1,16.808,32.438Zm-6.375-.91a5.885,5.885,0,0,1,2.58,1.312,1.456,1.456,0,0,1,.6,1.194l-.009.03c-.091.314-.49.6-1.081.769a5.886,5.886,0,0,1-2.9-.045,15,15,0,0,1-4.712-2.942,15.56,15.56,0,0,1,5.517-.318Zm5.134,26.333a4.556,4.556,0,0,1-1.088-.443,1,1,0,0,0-.968-.006,4.782,4.782,0,0,1-1.109.449c-3.763.962-8.159-3.019-9.8-8.88-1.01-3.623-.753-7.272.686-9.76a5.183,5.183,0,0,1,3.164-2.583,5,5,0,0,1,3.155.272,7.718,7.718,0,0,1,1.277.66,5.689,5.689,0,0,0,2.1.809V39.99a1,1,0,0,0,2,0V38.379a5.656,5.656,0,0,0,2.084-.8c.094-.059.191-.107.287-.162l2.2,19.782a5.421,5.421,0,0,1-3.988.662ZM22.56,58a1,1,0,0,1-1-.891L18.012,25.174l1.541.77a9.987,9.987,0,0,0,8.894,0,8.076,8.076,0,0,1,6.015-.433l-10.4,28.142a1,1,0,1,0,1.876.694L36.312,26.276a9.944,9.944,0,0,0,8.126-.323l1.549-.776L44.546,38.113l-4.727-4.727a2.071,2.071,0,0,0-1.481-.583,2.047,2.047,0,0,0-1.469.708A16.045,16.045,0,0,0,41.28,58Zm35.621-3.383A14,14,0,0,1,49.027,58H49.02a13.968,13.968,0,0,1-5.34-1.052h-.02A14.047,14.047,0,0,1,38.4,34.8l1.428,1.428A12.021,12.021,0,0,0,56.77,53.168Z"/></g></g></svg>