<svg xmlns="http://www.w3.org/2000/svg" xmlns:xlink="http://www.w3.org/1999/xlink" width="138" height="130" viewBox="0 0 138 130"><defs><style>.a{fill:#fbca9a;}.b,.c{fill:#fff;}.b{font-size:14px;font-family:Poppins-SemiBold, Poppins;font-weight:600;}.d{filter:url(#a);}</style><filter id="a" x="0" y="0" width="138" height="130" filterUnits="userSpaceOnUse"><feOffset input="SourceAlpha"/><feGaussianBlur stdDeviation="3" result="b"/><feFlood flood-opacity="0.161"/><feComposite operator="in" in2="b"/><feComposite in="SourceGraphic"/></filter></defs><g transform="translate(-497 -704)"><g class="d" transform="matrix(1, 0, 0, 1, 497, 704)"><rect class="a" width="120" height="112" rx="10" transform="translate(9 9)"/></g><text class="b" transform="translate(548 736)"><tspan x="0" y="0">iDeal</tspan></text><g transform="translate(532 676.383)"><g transform="translate(0 76.943)"><g transform="translate(0 0)"><path class="c" d="M66.784,87.139a1.071,1.071,0,0,0,1.071-1.071V81.9A4.961,4.961,0,0,0,62.9,76.943H4.956A4.961,4.961,0,0,0,0,81.9v37.549A4.961,4.961,0,0,0,4.956,124.4H62.9a4.961,4.961,0,0,0,4.956-4.956v-29.9a1.071,1.071,0,1,0-2.143,0v29.9a2.816,2.816,0,0,1-2.813,2.813H4.956a2.816,2.816,0,0,1-2.813-2.813V81.9a2.816,2.816,0,0,1,2.813-2.813H62.9A2.816,2.816,0,0,1,65.712,81.9v4.169A1.071,1.071,0,0,0,66.784,87.139Z" transform="translate(0 -76.943)"/></g></g><g transform="translate(33.523 96.369)"><path class="c" d="M253.965,224.473h2.659v-.949h-3.68v5.319h3.68v-.95h-2.659a.072.072,0,0,1-.071-.071V226.73a.071.071,0,0,1,.071-.071h2.659v-.949h-2.659a.072.072,0,0,1-.071-.071v-1.093A.071.071,0,0,1,253.965,224.473Z" transform="translate(-252.944 -223.524)"/></g><g transform="translate(37.98 96.369)"><g transform="translate(0 0)"><path class="c" d="M289.865,223.523h-1.214l-1.61,4.127-.465,1.192h1.265c.066-.18.124-.339.176-.479l0-.013c.384-1.028.424-1.028.477-1.028h1.516c.06,0,.1,0,.657,1.519h1.319Zm-.11,2.816h-.984a.071.071,0,0,1-.067-.095c.018-.053.046-.14.073-.223.019-.058.037-.115.051-.158.045-.129.1-.287.15-.447.075-.226.152-.46.213-.625a.071.071,0,0,1,.067-.046h0a.071.071,0,0,1,.067.046c.062.165.139.4.214.626.052.16.1.317.149.445.025.075.065.189.1.282l.029.082a.071.071,0,0,1-.059.112Z" transform="translate(-286.577 -223.523)"/></g></g><g transform="translate(19.868 88.722)"><g transform="translate(0 0)"><path class="c" d="M175.845,168.645a10.428,10.428,0,0,0-3.441-1.957,17.332,17.332,0,0,0-5.1-.858l-.07,0c-.152,0-.306-.005-.461-.005H149.91v24.982h16.861c4.327,0,7.455-1,9.563-3.052,2.127-2.072,3.174-5.178,3.2-9.494C179.535,174,178.328,170.853,175.845,168.645Zm-23.792-.679h4.857v3.281a5.2,5.2,0,0,0-4.857-.288Zm4.886,21.272h-5.462v-9.285h5.462Zm-.046-12.041c-.034.061-.071.121-.109.179-.026.04-.053.078-.08.116l-.049.065a3.087,3.087,0,0,1-.211.25l0,0A3.071,3.071,0,1,1,152.757,173l.006,0c.085-.045.171-.087.26-.124l.033-.012c.081-.033.163-.063.247-.089.026-.008.053-.013.079-.02.07-.02.14-.039.213-.054.046-.009.095-.014.142-.022s.106-.019.161-.024a3.077,3.077,0,0,1,.312-.016c.094,0,.188.006.28.014l.073.008c.081.009.162.021.241.037l.033.006c.088.018.174.041.259.067l.068.022c.07.023.139.048.206.075l.05.02c.079.034.157.072.232.112l.062.034q.089.05.175.106l.058.038q.1.071.2.151l.053.045q.075.064.146.132l.057.056c.058.059.114.12.167.183.014.017.027.035.041.052q.061.077.118.158l.049.072c.045.068.088.138.128.211a3.069,3.069,0,0,1-.01,2.966Zm2.143-2.558v-.188h.835c1.163,0,1.536.686,1.536,1.759,0,1.178-.648,1.6-1.327,1.6h-1.044ZM174.048,187.5c-1.93,1.295-4.579,1.924-8.1,1.924h-6.827a.071.071,0,0,1-.071-.071V178.79h1.11c1.625,0,2.415-1.148,2.415-2.691a2.331,2.331,0,0,0-2.415-2.631h-1.11v-5.531a.071.071,0,0,1,.071-.071h6.828c7.469,0,11.462,3.139,11.868,9.333a.07.07,0,0,1,0,.024.072.072,0,0,1-.072.071H175.51a.071.071,0,0,1-.071-.071V173.47h-1.5V178.9H177.8a.071.071,0,0,1,.071.072C177.851,182.94,176.563,185.808,174.048,187.5Z" transform="translate(-149.91 -165.823)"/></g></g><g transform="translate(15.397 84.252)"><g transform="translate(0 0)"><path class="c" d="M153.172,141.529a14.112,14.112,0,0,0-3.678-5.467l-.047-.042a14.337,14.337,0,0,0-2.782-1.872,15.712,15.712,0,0,0-2.329-.993,20.386,20.386,0,0,0-6.249-1.062H118.392a2.217,2.217,0,0,0-2.214,2.214V163.8a2.217,2.217,0,0,0,2.214,2.214h19.695c4.562-.065,8.7-1.414,11.35-3.7,3.377-2.871,5.089-7.352,5.089-13.316A20.081,20.081,0,0,0,153.172,141.529Zm-5.13,19.159c-2.276,1.966-5.916,3.127-9.986,3.185H118.392a.071.071,0,0,1-.071-.071v-29.5a.071.071,0,0,1,.071-.071h19.663a18.21,18.21,0,0,1,5.589.948,13.6,13.6,0,0,1,2.024.862,12.2,12.2,0,0,1,2.375,1.594,12.022,12.022,0,0,1,3.133,4.671A17.952,17.952,0,0,1,152.383,149C152.383,154.31,150.922,158.242,148.042,160.688Z" transform="translate(-116.178 -132.092)"/></g></g></g></g></svg>