<svg xmlns="http://www.w3.org/2000/svg" width="68.91" height="68.279" viewBox="0 0 68.91 68.279"><defs><style>.a{fill:#e8f1f3;}.b{fill:#077082;}</style></defs><path class="a" d="M240.989,1016.433c-15.355,2.837-32.691-8.531-27.243,10.38s-16.346,32.149,0,43.023,13.869,16.074,27.243,11.819,26.252-7.564,27.738-18.438,3.963-19.384-2.477-26.948c-1.842-2.163-.856-13.042-3.582-16.608C256.245,1011.261,240.989,1016.433,240.989,1016.433Z" transform="translate(-201.551 -1014.858)"/><g transform="translate(0 11.237)"><path class="b" d="M1243.315-313.589v-11.84h-.729q-4.1,0-8.2,0c-.975,0-1.215-.245-1.215-1.237q0-4.066,0-8.132v-.756c-.283-.012-.514-.032-.744-.032q-13.369,0-26.738,0c-1.141,0-1.309.172-1.309,1.323q0,24.072,0,48.143c0,1.188.157,1.344,1.358,1.344h36.172c1.282,0,1.423-.141,1.423-1.415,0-3.079.014-6.159-.011-9.238a3.1,3.1,0,0,1,.454-1.718c.4-.655.744-1.345,1.226-1.987.01.2.028.409.028.613q0,6.311,0,12.621a2.532,2.532,0,0,1-2.807,2.823q-18.379,0-36.757,0a2.526,2.526,0,0,1-2.792-2.776q0-24.331,0-48.663a2.526,2.526,0,0,1,2.791-2.776q14.085,0,28.17-.009a1.631,1.631,0,0,1,1.263.515q4.769,4.8,9.573,9.563a1.755,1.755,0,0,1,.571,1.372q-.037,4.294,0,8.587a3.014,3.014,0,0,1-.426,1.66c-.409.675-.763,1.383-1.141,2.076Zm-8.406-20.589v7h7.006Z" transform="translate(-1202.673 337.301)"/><path class="b" d="M1267.945-119.587a15.6,15.6,0,0,0-1.372.817c-1.065.783-2.078,1.637-3.16,2.4a9.908,9.908,0,0,1-2.093,1.153c-1.02.393-1.755-.179-1.627-1.277a5.419,5.419,0,0,1,.646-1.949c.556-1,1.245-1.928,1.867-2.892.255-.4.48-.809.719-1.214l-.1-.141a3.66,3.66,0,0,0-.8.259c-1.445.866-2.906,1.712-4.3,2.651-1.509,1.013-2.935,2.15-4.44,3.171a6.679,6.679,0,0,1-1.829.813,1.541,1.541,0,0,1-1.731-.425,1.5,1.5,0,0,1-.034-1.775,6.774,6.774,0,0,1,4.819-3.894,1.72,1.72,0,0,1,.629.148c-.092.184-.138.429-.286.538a2.888,2.888,0,0,1-.907.463,4.583,4.583,0,0,0-2.817,2.246,1.158,1.158,0,0,0-.2.543c.006.331-.021.782.172.956a1.089,1.089,0,0,0,.942-.012,11.084,11.084,0,0,0,1.671-.991c2.2-1.535,4.38-3.112,6.6-4.624a15.815,15.815,0,0,1,2.246-1.159,2.356,2.356,0,0,1,.884-.182c.765-.031,1.133.414.831,1.115a22.462,22.462,0,0,1-1.172,2.089q-.845,1.5-1.68,3a.906.906,0,0,0-.128.366c-.018.31-.006.622-.005.933a2.439,2.439,0,0,0,.974-.1,16.418,16.418,0,0,0,1.664-1.233c1.023-.8,2.01-1.648,3.07-2.394a4.345,4.345,0,0,1,1.61-.638c.682-.138,1.022.25.932.95a4.841,4.841,0,0,1-.223.811,1.3,1.3,0,0,0,.976,1.851,6.927,6.927,0,0,0,2.316.114,35.545,35.545,0,0,0,3.745-.8.848.848,0,0,0,.439-.572c.325-1.436.5-2.913.938-4.312a23.661,23.661,0,0,1,1.667-3.933c1.688-3.22,3.457-6.4,5.2-9.591.061-.112.142-.212.232-.345l4.108,2.246c-.21.389-.4.743-.593,1.1q-2.574,4.741-5.146,9.484a20.343,20.343,0,0,1-5.344,5.881c-2.182,1.789-4.793,2.19-7.5,2.17a3.379,3.379,0,0,1-1.306-.355,1.824,1.824,0,0,1-1.15-2.374c.072-.311.132-.625.2-.937Z" transform="translate(-1243.333 162.769)"/><path class="b" d="M1537.507-263.614c-.921,1.692-1.831,3.363-2.74,5.035-.735,1.351-1.479,2.7-2.194,4.058-.232.442-.457.533-.911.27-1.157-.669-2.343-1.291-3.559-1.953.6-1.1,1.172-2.165,1.749-3.227q2.636-4.853,5.274-9.7c.572-1.051.716-1.111,1.883-.8.293-.537.585-1.089.894-1.632a.964.964,0,0,1,1.347-.512.966.966,0,0,1,.318,1.4c-.286.558-.594,1.105-.915,1.7.2.121.38.221.549.343.445.323.664.812.326,1.238-.89,1.123-.655,2.127-.1,3.341a5.914,5.914,0,0,1-.35,5.666c-1.35,2.346-2.6,4.751-3.887,7.13-.093.171-.184.344-.282.512a.982.982,0,0,1-1.349.516.956.956,0,0,1-.321-1.4c.982-1.832,1.98-3.656,2.972-5.483.486-.895.985-1.782,1.457-2.684A3.958,3.958,0,0,0,1537.507-263.614Z" transform="translate(-1485.753 280.674)"/><path class="b" d="M1269.249-180.867h13.065a2.808,2.808,0,0,1,.647.026.8.8,0,0,1,.68.892.774.774,0,0,1-.741.767,5.534,5.534,0,0,1-.649.012h-26.065c-.173,0-.347.009-.52,0a.778.778,0,0,1-.8-.772.8.8,0,0,1,.738-.905,3.215,3.215,0,0,1,.584-.016Z" transform="translate(-1248.068 201.229)"/><path class="b" d="M1269.226-218.312h-13a4.239,4.239,0,0,1-.649-.018.777.777,0,0,1-.723-.785.794.794,0,0,1,.695-.879,3.092,3.092,0,0,1,.648-.022h26.13c.216,0,.5-.07.634.039a1.772,1.772,0,0,1,.651.837c.091.418-.234.724-.673.8a3.658,3.658,0,0,1-.648.022Z" transform="translate(-1248.062 235.296)"/><path class="b" d="M1273.34-140.1c-2.42,0-4.839.006-7.259,0-3.072-.01-6.144-.033-9.217-.045-.389,0-.778.048-1.166.045a.784.784,0,0,1-.861-.782.815.815,0,0,1,.809-.91c2.056,0,4.112.023,6.168.028.866,0,1.732-.035,2.6-.035q8.967,0,17.934,0c.087,0,.173,0,.26,0,.609.019,1.019.36,1.024.85s-.389.843-1.015.846c-1.319.008-2.638,0-3.957,0Z" transform="translate(-1248.045 167.245)"/><path class="b" d="M1264.557-101.083c-2.8,0-5.592.012-8.388-.017a1.47,1.47,0,0,1-.947-.387.84.84,0,0,1-.032-.819,1.236,1.236,0,0,1,.846-.452c1.407-.048,2.817-.027,4.226-.027s2.811,0,4.217,0q4.227,0,8.453,0c.214,0,.506-.032.624.087.234.236.531.584.5.855s-.4.532-.67.726c-.131.094-.379.027-.574.027Z" transform="translate(-1248.276 133.307)"/><path class="b" d="M1264.365-257.231c-2.774,0-5.548.015-8.322-.02a1.325,1.325,0,0,1-.9-.469.843.843,0,0,1,.062-.819,1.335,1.335,0,0,1,.894-.374q8.257-.032,16.515-.014c.669,0,1.066.347,1.047.88-.017.51-.392.813-1.042.814Q1268.494-257.226,1264.365-257.231Z" transform="translate(-1248.248 269.128)"/></g></svg>