<svg xmlns="http://www.w3.org/2000/svg" xmlns:xlink="http://www.w3.org/1999/xlink" width="138" height="130" viewBox="0 0 138 130"><defs><style>.a{fill:#8bb8c0;}.b,.c{fill:#fff;}.c{font-size:14px;font-family:Poppins-SemiBold, Poppins;font-weight:600;}.d{filter:url(#a);}</style><filter id="a" x="0" y="0" width="138" height="130" filterUnits="userSpaceOnUse"><feOffset input="SourceAlpha"/><feGaussianBlur stdDeviation="3" result="b"/><feFlood flood-opacity="0.161"/><feComposite operator="in" in2="b"/><feComposite in="SourceGraphic"/></filter></defs><g transform="translate(-205 -704)"><g class="d" transform="matrix(1, 0, 0, 1, 205, 704)"><rect class="a" width="120" height="112" rx="10" transform="translate(9 9)"/></g><g transform="translate(235 669.341)"><g transform="translate(0 85.333)"><g transform="translate(0 0)"><path class="b" d="M69.856,85.333H8.123A8.134,8.134,0,0,0,0,93.456V129.2a8.134,8.134,0,0,0,8.123,8.123H69.856a8.134,8.134,0,0,0,8.123-8.123V93.456A8.134,8.134,0,0,0,69.856,85.333ZM74.73,129.2a4.88,4.88,0,0,1-4.874,4.874H8.123A4.88,4.88,0,0,1,3.249,129.2V93.456a4.88,4.88,0,0,1,4.874-4.874H69.856a4.88,4.88,0,0,1,4.874,4.874V129.2Z" transform="translate(0 -85.333)"/></g></g><g transform="translate(0 95.08)"><g transform="translate(0 0)"><path class="b" d="M76.354,149.333H1.625A1.625,1.625,0,0,0,0,150.958V160.7a1.625,1.625,0,0,0,1.625,1.625h74.73a1.625,1.625,0,0,0,1.625-1.625v-9.747A1.625,1.625,0,0,0,76.354,149.333ZM74.73,159.08H3.249v-6.5H74.73v6.5Z" transform="translate(0 -149.333)"/></g></g><g transform="translate(9.747 117.824)"><g transform="translate(0 0)"><path class="b" d="M85.119,298.667H65.625a1.625,1.625,0,1,0,0,3.249H85.119a1.625,1.625,0,1,0,0-3.249Z" transform="translate(-64 -298.667)"/></g></g><g transform="translate(9.747 124.322)"><path class="b" d="M85.119,341.333H65.625a1.625,1.625,0,1,0,0,3.249H85.119a1.625,1.625,0,1,0,0-3.249Z" transform="translate(-64 -341.333)"/></g><g transform="translate(55.235 114.575)"><g transform="translate(0 0)"><path class="b" d="M370.79,277.333h-3.249a4.88,4.88,0,0,0-4.874,4.874v3.249a4.88,4.88,0,0,0,4.874,4.874h3.249a4.88,4.88,0,0,0,4.874-4.874v-3.249A4.88,4.88,0,0,0,370.79,277.333Zm1.625,8.123a1.625,1.625,0,0,1-1.625,1.625h-3.249a1.625,1.625,0,0,1-1.625-1.625v-3.249a1.625,1.625,0,0,1,1.625-1.625h3.249a1.625,1.625,0,0,1,1.625,1.625Z" transform="translate(-362.667 -277.333)"/></g></g></g><text class="c" transform="translate(233 736)"><tspan x="0" y="0">Credit Card</tspan></text></g></svg>