<svg xmlns="http://www.w3.org/2000/svg" width="82.615" height="73.582" viewBox="0 0 82.615 73.582"><defs><style>.a{fill:#e8f1f3;}.b{fill:#077082;}</style></defs><g transform="translate(-267.657 -998.57)"><g transform="translate(15.136)"><path class="a" d="M240.97,1016.432c-15.346,2.835-32.673-8.527-27.227,10.374s-16.336,32.13,0,43,13.861,16.065,27.227,11.813,26.237-7.56,27.722-18.428,3.96-19.373-2.475-26.933c-1.841-2.162-.856-13.035-3.58-16.6C256.218,1011.263,240.97,1016.432,240.97,1016.432Z" transform="translate(64.711 -10.946)"/></g><g transform="translate(221.515 998.573)"><path class="b" d="M132.2,178.792a5.45,5.45,0,1,0-5.45-5.45A5.456,5.456,0,0,0,132.2,178.792Zm0-8.864a3.414,3.414,0,1,1-3.414,3.414A3.418,3.418,0,0,1,132.2,169.928Z" transform="translate(-69.671 -145.109)"/><path class="b" d="M221.462,138.448a5.318,5.318,0,1,0-5.318-5.318A5.324,5.324,0,0,0,221.462,138.448Zm0-8.6a3.282,3.282,0,1,1-3.282,3.282A3.286,3.286,0,0,1,221.462,129.849Z" transform="translate(-146.93 -110.469)"/><path class="b" d="M149.167,370.751a5.318,5.318,0,1,0-5.318-5.318A5.324,5.324,0,0,0,149.167,370.751Zm0-8.6a3.282,3.282,0,1,1-3.282,3.282A3.286,3.286,0,0,1,149.167,362.152Z" transform="translate(-84.447 -311.245)"/><path class="b" d="M241.436,400.359a5.318,5.318,0,1,0-5.318-5.318A5.324,5.324,0,0,0,241.436,400.359Zm0-8.6a3.282,3.282,0,1,1-3.282,3.282A3.286,3.286,0,0,1,241.436,391.76Z" transform="translate(-164.193 -336.835)"/><path class="b" d="M84.953,267.406a6.206,6.206,0,1,0,6.206-6.206A6.213,6.213,0,0,0,84.953,267.406Zm6.206-4.17a4.17,4.17,0,1,1-4.17,4.17A4.175,4.175,0,0,1,91.159,263.236Z" transform="translate(-33.544 -225.753)"/><path class="b" d="M46.142,40.585c0,15.355,13.228,27.026,28.663,27.966l.063,0a1.018,1.018,0,0,0,.061-2.034c-15-.914-26.751-12.305-26.751-25.934,0-15.441,14.7-27.356,31.5-25.834a9.212,9.212,0,0,0,2.689,1.9A2.406,2.406,0,0,0,82.4,17.78l2.015,7.41a2.176,2.176,0,0,0-.445,1.982l.479,1.764a2.178,2.178,0,0,0,2.463,1.571l.951,4.117c-3.438,1.566-5.318,3.664-5.318,5.961s1.921,4.437,5.41,6a9.774,9.774,0,0,1,3.195,2.271,86.67,86.67,0,0,0,2.285,8.945A9.539,9.539,0,0,1,87.168,64.8a31.29,31.29,0,0,1-7.64,1.656,1.018,1.018,0,0,0,.179,2.028,33.325,33.325,0,0,0,8.137-1.764,11.693,11.693,0,0,0,6.692-5.945,54.86,54.86,0,0,0,3.755,7.415,2.578,2.578,0,0,0,4.814-1.309,49.564,49.564,0,0,0-2.341-16.172,1.018,1.018,0,0,0-1.942.609A47.7,47.7,0,0,1,101.069,66.9a.542.542,0,0,1-1.012.275c-4.283-7.469-4.822-9.684-6.981-19.032L88.882,29.982l2.991-.813L93.389,34h0L97.4,46.784a1.018,1.018,0,1,0,1.942-.609L95.629,34.343a8.332,8.332,0,0,0,2.376-14,30.782,30.782,0,0,0-6.557-4.368l-.167-.612a2.363,2.363,0,0,0-.545-.987,7.955,7.955,0,0,0,1.306-6.61C91.326,5.133,89.564,4.116,87.7,3.04A15.454,15.454,0,0,1,84.269.588a1.958,1.958,0,0,0-3.3.9A15.456,15.456,0,0,1,79.25,5.337c-1.075,1.894-2.385,4.1-1,7.281-17.278-.744-32.111,11.788-32.111,27.967ZM90.4,45.6a12.348,12.348,0,0,0-1.609-.871c-2.675-1.2-4.209-2.712-4.209-4.147,0-1.366,1.351-2.768,3.751-3.932Zm6.267-23.724A6.3,6.3,0,0,1,95.018,32.4l-1.183-3.771a2.181,2.181,0,0,0,1.328-2.6l-.479-1.764A2.178,2.178,0,0,0,93.3,22.775l-1.114-4.1A28.506,28.506,0,0,1,96.666,21.879ZM92.552,24.7h0a.138.138,0,0,1,.167.1l.479,1.764a.137.137,0,0,1-.1.168L86.583,28.5a.137.137,0,0,1-.168-.1l-.479-1.764a.139.139,0,0,1,.1-.168Zm-1.318-1.751-4.952,1.346-1.916-7.046a.345.345,0,0,1,.239-.418L88.9,15.661a.341.341,0,0,1,.418.239ZM81.021,6.342a17.584,17.584,0,0,0,1.888-4.236,17.545,17.545,0,0,0,3.772,2.7c1.684.972,2.9,1.674,3.4,3.5a6.186,6.186,0,0,1-1.3,5.319,2.526,2.526,0,0,0-.409.074l-4.295,1.168a2.555,2.555,0,0,0-.39.144,6.113,6.113,0,0,1-3.818-3.927c-.5-1.826.2-3.048,1.157-4.738Z" transform="translate(0 0)"/></g></g></svg>