<svg xmlns="http://www.w3.org/2000/svg" width="74.168" height="68.241" viewBox="0 0 74.168 68.241"><defs><style>.a{fill:#e8f1f3;}.b{fill:#077082;}</style></defs><g transform="translate(-1572.104 -1003.912)"><path class="a" d="M240.97,1016.432c-15.346,2.835-32.673-8.527-27.227,10.374s-16.336,32.13,0,43,13.861,16.065,27.227,11.813,26.237-7.56,27.722-18.428,3.96-19.373-2.475-26.933c-1.841-2.162-.856-13.035-3.58-16.6C256.218,1011.263,240.97,1016.432,240.97,1016.432Z" transform="translate(1375.847 -10.946)"/><g transform="translate(-370.333 1223.738)"><path class="b" d="M1952.717-120.988h6.654c-.494,3.488-.947,6.815-1.471,10.132-.039.249-.579.593-.89.6-3.187.044-6.376.048-9.563-.008a1.215,1.215,0,0,1-.879-.769c-.5-3.237-.927-6.486-1.4-9.914h5.507c.846-2.262-.363-3.818-1.4-5.407a.863.863,0,0,0-.616-.245c-4.569-.188-6.508-4.125-6.194-7.964.105-1.289.445-2.559.672-3.8,3.581,0,7.658,2.828,8.265,5.878a8.01,8.01,0,0,1-.306,3.96,2.246,2.246,0,0,0,.643,2.751c.57-1.245,1.154-2.4,1.615-3.6a1.727,1.727,0,0,0-.254-1.155c-1.587-3.195-1.127-6.083,1.645-8.308a42.237,42.237,0,0,1,4.946-2.986c1.382,2.9,1.937,5.516,1.125,8.257a5.652,5.652,0,0,1-4.6,4.242,1.983,1.983,0,0,0-1.713,1.378C1953.683-125.764,1952.009-123.814,1952.717-120.988Zm-5.674,1.659c.307,2.332.573,4.553.922,6.76a1.115,1.115,0,0,0,.814.694c2.525.055,5.052.032,7.714.032l1.016-7.486Zm-2.249-17.311-.616.353a36.268,36.268,0,0,0,.294,4.809,3.848,3.848,0,0,0,3.662,3.128,1.861,1.861,0,0,0,1.411-.733,3.884,3.884,0,0,0-.748-4.877A35.693,35.693,0,0,0,1944.793-136.64Zm14.071-2.752a9.08,9.08,0,0,0-4.453,3.406,3.879,3.879,0,0,0,.136,4.49,1.557,1.557,0,0,0,1.245.55,3.894,3.894,0,0,0,3.429-2.911A9.566,9.566,0,0,0,1958.864-139.392Z" transform="translate(0 -53.288)"/><path class="b" d="M2000.9-132.452l19.428-18.207,19.787,18.531c-3.167,0-5.9.026-8.625-.033-.34-.007-.693-.44-1-.716-3.355-3-6.7-6-10.151-9.089-1.812,1.62-3.585,3.2-5.354,4.79-1.641,1.471-3.266,2.96-4.924,4.411a2.206,2.206,0,0,1-1.184.65c-2.609.058-5.22.03-7.831.03Zm19.44-11.686c3.522,3.168,6.985,6.114,10.235,9.279,1.593,1.552,3.239,1.093,5.094.766l-15.335-14.362-15.453,14.479c2.624.654,3.724.4,5.433-1.143C2013.621-138.094,2016.927-141.065,2020.343-144.138Z" transform="translate(-42.004 -46.947)"/><path class="b" d="M2028.623-67.071h5.877V-78.638c2.25,0,4.338,0,6.426,0,2.811,0,2.811.007,2.811,2.827v8.758h5.895V-79.269l1.7-.121v1.6c0,3.7-.011,7.407.007,11.11,0,.788-.061,1.335-1.1,1.33-7.547-.036-15.094-.028-22.641-.039a2.335,2.335,0,0,1-.5-.14v-13.75l1.53-.068Zm7.574,0h5.9c0-3.138.019-6.174-.035-9.209,0-.242-.5-.666-.784-.68a38.439,38.439,0,0,0-4.213.007c-.3.018-.826.5-.832.77C2036.175-73.192,2036.2-70.2,2036.2-67.072Z" transform="translate(-60.821 -98.15)"/><path class="b" d="M2038.965-203.63c2.715-1.2,3.755-.913,5.657,1.393a2.264,2.264,0,0,0,1.147.631,3.58,3.58,0,0,1,2.893,3.624,3.534,3.534,0,0,1-3.608,3.246c-3.42.035-6.842.023-10.262,0a5.474,5.474,0,0,1-5.435-4.058,5.556,5.556,0,0,1,2.567-6.17,5.361,5.361,0,0,1,6.573.91C2038.633-203.923,2038.773-203.8,2038.965-203.63Zm-.013,1.831c-1.288-.8-2.353-1.824-3.6-2.171a3.79,3.79,0,0,0-4.579,3.432,3.809,3.809,0,0,0,3.79,4.177c3.419.1,6.844.046,10.266.055a2.274,2.274,0,0,0,.42-.034c1.1-.206,1.811-.783,1.76-1.986a1.929,1.929,0,0,0-2.136-1.759c-.308.012-.615.043-.9.063C2042.845-203.094,2041.5-203.47,2038.952-201.8Z" transform="translate(-62.314 -7.399)"/><path class="b" d="M2098.7-161.492c-.936,0-1.875.054-2.806-.011a4.961,4.961,0,0,1-4.469-4.019,5.059,5.059,0,0,1,2.561-5.456,4.768,4.768,0,0,1,5.883,1.064,2.594,2.594,0,0,0,1.5.707,3.937,3.937,0,0,1,3.765,3.944,3.875,3.875,0,0,1-3.771,3.78c-.888.037-1.778.006-2.667.006Zm1.132-5.767a16.314,16.314,0,0,0-.924-1.438,3.26,3.26,0,0,0-3.781-1.054,3.437,3.437,0,0,0-2.2,3.422,3.119,3.119,0,0,0,2.438,3.067,39.376,39.376,0,0,0,6.432.071,2.083,2.083,0,0,0,1.658-2.655,2.234,2.234,0,0,0-2.649-1.7C2100.492-167.486,2100.189-167.367,2099.828-167.259Z" transform="translate(-106.966 -31.927)"/><path class="b" d="M1970.21-193.812a5.32,5.32,0,0,1-5.446,5.393,5.38,5.38,0,0,1-5.362-5.359,5.372,5.372,0,0,1,5.4-5.46A5.3,5.3,0,0,1,1970.21-193.812Zm-5.423,3.776a3.806,3.806,0,0,0,3.879-3.8,3.969,3.969,0,0,0-3.881-3.855,3.851,3.851,0,0,0-3.774,3.78A3.751,3.751,0,0,0,1964.787-190.035Z" transform="translate(-12.188 -12.046)"/><path class="b" d="M1946.1-194.2l-3.494-1.447.66-1.449,3.4,1.395Z" transform="translate(-0.119 -13.588)"/><path class="b" d="M1961.507-215.419l1.469-.586,1.444,3.371-1.39.727Z" transform="translate(-13.701 0)"/><path class="b" d="M2004.294-171.792l-.632,1.47-3.439-1.453.61-1.455Z" transform="translate(-41.516 -30.731)"/><path class="b" d="M2000.786-194.141l-.68-1.428,3.455-1.449.679,1.428Z" transform="translate(-41.432 -13.641)"/><path class="b" d="M1988.348-155.113l-1.47.609-1.4-3.41,1.406-.681Z" transform="translate(-30.922 -41.246)"/><path class="b" d="M1987-211.823l-1.388-.681,1.373-3.394,1.516.519Z" transform="translate(-31.021 -0.077)"/><path class="b" d="M1943-171.689l3.131-1.339c.969,1.233.954,1.3-.355,1.867a9.442,9.442,0,0,0-1.152.5C1943.537-170.009,1943.143-170.508,1943-171.689Z" transform="translate(-0.407 -30.877)"/><path class="b" d="M1961.7-155.035l1.38-3.3,1.454.514c-.343.857-.708,1.6-.938,2.386C1963.233-154.2,1962.616-154.31,1961.7-155.035Z" transform="translate(-13.839 -41.434)"/></g></g></svg>