<svg xmlns="http://www.w3.org/2000/svg" xmlns:xlink="http://www.w3.org/1999/xlink" width="120" height="120" viewBox="0 0 120 120"><defs><style>.a{fill:#fbca9a;}.b{fill:#fff;}.c{filter:url(#a);}</style><filter id="a" x="0" y="0" width="120" height="120" filterUnits="userSpaceOnUse"><feOffset dy="3" input="SourceAlpha"/><feGaussianBlur stdDeviation="3" result="b"/><feFlood flood-opacity="0.161"/><feComposite operator="in" in2="b"/><feComposite in="SourceGraphic"/></filter></defs><g transform="translate(-900 -731)"><g class="c" transform="matrix(1, 0, 0, 1, 900, 731)"><rect class="a" width="102" height="102" rx="10" transform="translate(9 6)"/></g><g transform="translate(929.91 753.014)"><path class="b" d="M82.347,49.632v-1.89a12.915,12.915,0,0,1,3.847-9.215,22.451,22.451,0,1,0-31.185.118,12.576,12.576,0,0,1,3.71,9.1v1.89A4.713,4.713,0,0,0,57.168,58.8a4.726,4.726,0,0,0,3.914,7.371h1.3A5.918,5.918,0,0,0,68.17,70.9H72.9a5.918,5.918,0,0,0,5.789-4.725h1.3A4.725,4.725,0,0,0,83.9,58.8a4.713,4.713,0,0,0-1.55-9.168Zm-25.7-12.69a20.029,20.029,0,0,1-6.129-16.09A20.276,20.276,0,0,1,68.234,2.505a20.071,20.071,0,0,1,16.3,34.32,15.29,15.29,0,0,0-4.553,10.917v1.89h-18.9v-1.89a14.948,14.948,0,0,0-4.439-10.8ZM72.9,68.534H68.17a3.544,3.544,0,0,1-3.327-2.363H76.222A3.543,3.543,0,0,1,72.9,68.534Zm7.088-4.725h-18.9a2.363,2.363,0,1,1,0-4.725h18.9a2.363,2.363,0,1,1,0,4.725Zm2.363-7.088H58.719a2.363,2.363,0,1,1,0-4.725H82.347a2.363,2.363,0,1,1,0,4.725Zm0,0" transform="translate(-40.909 0)"/><path class="b" d="M368.09,144.184h4.725v2.363H368.09Zm0,0" transform="translate(-313.657 -122.905)"/><path class="b" d="M341.586,47.609l4.092-2.363,1.181,2.047-4.093,2.362Zm0,0" transform="translate(-291.067 -38.577)"/><path class="b" d="M22.883,47.308l1.181-2.046,4.092,2.363L26.975,49.67Zm0,0" transform="translate(-19.427 -38.59)"/><path class="b" d="M.09,144.184H4.815v2.363H.09Zm0,0" transform="translate(0 -122.905)"/><path class="b" d="M22.895,231.609l4.093-2.363,1.181,2.047-4.093,2.362Zm0,0" transform="translate(-19.437 -195.405)"/><path class="b" d="M341.586,231.3l1.181-2.046,4.092,2.363-1.181,2.046Zm0,0" transform="translate(-291.067 -195.415)"/><path class="b" d="M123.267,74.7l.614-1.23.753,2.257a1.182,1.182,0,0,0,1.114.808h4.725a1.182,1.182,0,0,0,1.12-.808l.752-2.257.614,1.23a1.183,1.183,0,0,0,1.057.654h4.2a2.363,2.363,0,0,0,2.213-3.19l-2.371-6.32a3.559,3.559,0,0,0-2.863-2.268V56.671a5.827,5.827,0,0,0-1.017-3.315c-3.539-5.173-5.445-5.173-6.071-5.173s-2.532,0-6.07,5.172a5.831,5.831,0,0,0-1.019,3.316v6.905a3.559,3.559,0,0,0-2.862,2.265l-2.371,6.324A2.363,2.363,0,0,0,118,75.355h4.2a1.181,1.181,0,0,0,1.063-.654Zm3.333-.528-.395-1.181h3.811l-.395,1.181Zm9.249-7.5,2.371,6.322h-3.472l-.1-.206a1.159,1.159,0,0,0,.554-.975v-5.8a1.173,1.173,0,0,1,.65.662Zm-12.464-10a3.486,3.486,0,0,1,.605-1.981c2.242-3.278,3.676-4.144,4.12-4.144s1.879.866,4.122,4.145a3.486,3.486,0,0,1,.6,1.98V70.63h-3.544V63.541h-2.363V70.63h-3.544ZM118,72.992l2.371-6.323a1.175,1.175,0,0,1,.65-.66v5.8a1.16,1.16,0,0,0,.554.975l-.1.206Zm0,0" transform="translate(-98.486 -41.081)"/><path class="b" d="M179.634,87.272a3.544,3.544,0,1,0-3.544-3.544A3.544,3.544,0,0,0,179.634,87.272Zm0-4.725a1.181,1.181,0,1,1-1.181,1.181A1.181,1.181,0,0,1,179.634,82.547Zm0,0" transform="translate(-150.01 -68.355)"/><path class="b" d="M192.09,272.184h2.363v7.088H192.09Zm0,0" transform="translate(-163.647 -232.003)"/><path class="b" d="M224.09,256.184h2.363v7.088H224.09Zm0,0" transform="translate(-190.922 -218.365)"/><path class="b" d="M160.09,256.184h2.363v7.088H160.09Zm0,0" transform="translate(-136.373 -218.365)"/></g></g></svg>