<svg xmlns="http://www.w3.org/2000/svg" xmlns:xlink="http://www.w3.org/1999/xlink" width="120" height="120" viewBox="0 0 120 120"><defs><style>.a{fill:#8bb8c0;}.b{fill:#fff;}.c{filter:url(#a);}</style><filter id="a" x="0" y="0" width="120" height="120" filterUnits="userSpaceOnUse"><feOffset dy="3" input="SourceAlpha"/><feGaussianBlur stdDeviation="3" result="b"/><feFlood flood-opacity="0.161"/><feComposite operator="in" in2="b"/><feComposite in="SourceGraphic"/></filter></defs><g transform="translate(-309 -731)"><g class="c" transform="matrix(1, 0, 0, 1, 309, 731)"><rect class="a" width="102" height="102" rx="10" transform="translate(9 6)"/></g><g transform="translate(336.999 747)"><g transform="translate(16.502 10.128)"><path class="b" d="M8.688,50.265A1.689,1.689,0,0,1,7,48.577V9.752a6.752,6.752,0,0,1,13.5,0V45.2a1.688,1.688,0,1,1-3.376,0V9.752a3.376,3.376,0,0,0-6.752,0V48.577A1.689,1.689,0,0,1,8.688,50.265Z" transform="translate(-7 -3)"/></g><g transform="translate(26.63 30.385)"><path class="b" d="M21.816,32.632a1.689,1.689,0,0,1-1.688-1.688V15.752a3.376,3.376,0,0,0-6.752,0,1.688,1.688,0,1,1-3.376,0,6.752,6.752,0,0,1,13.5,0V30.944A1.689,1.689,0,0,1,21.816,32.632Z" transform="translate(-10 -9)"/></g><g transform="translate(36.758 33.761)"><path class="b" d="M24.816,30.256a1.689,1.689,0,0,1-1.688-1.688V16.752a3.376,3.376,0,1,0-6.752,0,1.688,1.688,0,0,1-3.376,0,6.752,6.752,0,1,1,13.5,0V28.568A1.689,1.689,0,0,1,24.816,30.256Z" transform="translate(-13 -10)"/></g><g transform="translate(3.001 37.137)"><path class="b" d="M45.2,54.889H25.661a22.7,22.7,0,0,1-15.685-6.62C5.4,43.694,2.991,37.168,3,29.4A11.834,11.834,0,0,1,14.969,17.752H18.19a1.688,1.688,0,1,1,0,3.376H14.969a8.456,8.456,0,0,0-8.592,8.278c-.007,6.948,2.009,12.488,5.986,16.475a19.522,19.522,0,0,0,13.3,5.631H45.2A11.829,11.829,0,0,0,57.015,39.7V17.752a3.376,3.376,0,0,0-6.752,0,1.688,1.688,0,0,1-3.376,0,6.752,6.752,0,1,1,13.5,0V39.7A15.211,15.211,0,0,1,45.2,54.889Z" transform="translate(-3.001 -11)"/></g><g transform="translate(6.374)"><path class="b" d="M32.7,28.089a1.686,1.686,0,0,1-1.3-2.755,13.227,13.227,0,0,0,2.991-8.454,13.5,13.5,0,0,0-27.008,0,13.211,13.211,0,0,0,2.995,8.454,1.687,1.687,0,0,1-2.61,2.137A16.535,16.535,0,0,1,4,16.88a16.88,16.88,0,0,1,33.761,0A16.551,16.551,0,0,1,34,27.471,1.679,1.679,0,0,1,32.7,28.089Z" transform="translate(-4)"/></g></g></g></svg>