<svg xmlns="http://www.w3.org/2000/svg" width="78" height="51" viewBox="0 0 78 51"><defs><style>.a{fill:#e8f1f3;}.b{fill:#8bb8c0;}</style></defs><g transform="translate(-140 -2370.476)"><rect class="a" width="78" height="51" rx="5" transform="translate(140 2370.476)"/><path class="b" d="M24.587,0H4.553A4.558,4.558,0,0,0,0,4.553V20.489a4.558,4.558,0,0,0,4.553,4.553H15.367a1.138,1.138,0,0,0,.9-1.835L13.29,19.36l8.252-10.5,5.322,6.349v1.92a1.138,1.138,0,0,0,2.277,0V4.553A4.558,4.558,0,0,0,24.587,0Zm-2.2,6.326a1.138,1.138,0,0,0-1.767.028L11.853,17.5,8.868,13.646a1.138,1.138,0,0,0-.9-.442h0a1.138,1.138,0,0,0-.9.444L4.561,16.905a1.138,1.138,0,1,0,1.8,1.388l1.606-2.087,5.076,6.56H4.553a2.279,2.279,0,0,1-2.277-2.277V4.553A2.279,2.279,0,0,1,4.553,2.277H24.587a2.279,2.279,0,0,1,2.277,2.277v7.115ZM7.968,4.1a3.415,3.415,0,1,0,3.415,3.415A3.419,3.419,0,0,0,7.968,4.1Zm0,4.553A1.138,1.138,0,1,1,9.106,7.513,1.14,1.14,0,0,1,7.968,8.651ZM29.141,21.685A1.138,1.138,0,0,1,28,22.823h-3.13v3.13a1.138,1.138,0,1,1-2.277,0v-3.13h-3.13a1.138,1.138,0,1,1,0-2.277H22.6v-3.13a1.138,1.138,0,1,1,2.277,0v3.13H28A1.138,1.138,0,0,1,29.141,21.685Zm0,0" transform="translate(164 2382.476)"/></g></svg>