<svg xmlns="http://www.w3.org/2000/svg" width="80.744" height="74.688" viewBox="0 0 80.744 74.688"><defs><style>.a{fill:#fbca9a;}.b{fill:none;stroke:#000;stroke-width:3px;}</style></defs><g transform="translate(-878.062 -1096.435)"><path class="a" d="M74.519,27.548a3.963,3.963,0,0,0-3.419-2.73L49.536,22.86,41.009,2.9a3.971,3.971,0,0,0-7.3,0L25.179,22.86,3.611,24.818a3.975,3.975,0,0,0-2.254,6.949l16.3,14.3L12.85,67.235a3.965,3.965,0,0,0,5.906,4.29l18.6-11.117L55.952,71.525a3.97,3.97,0,0,0,5.909-4.29L57.054,46.062l16.3-14.293a3.973,3.973,0,0,0,1.165-4.221Zm0,0" transform="translate(878.062 1097.443)"/><path class="b" d="M74.519,27.548a3.963,3.963,0,0,0-3.419-2.73L49.536,22.86,41.009,2.9a3.971,3.971,0,0,0-7.3,0L25.179,22.86,3.611,24.818a3.975,3.975,0,0,0-2.254,6.949l16.3,14.3L12.85,67.235a3.965,3.965,0,0,0,5.906,4.29l18.6-11.117L55.952,71.525a3.97,3.97,0,0,0,5.909-4.29L57.054,46.062l16.3-14.293a3.973,3.973,0,0,0,1.165-4.221Zm0,0" transform="translate(882.535 1097.443)"/></g></svg>