<svg xmlns="http://www.w3.org/2000/svg" width="81.749" height="68.241" viewBox="0 0 81.749 68.241"><defs><style>.a{fill:#e8f1f3;}.b{fill:#077082;}</style></defs><g transform="translate(-1132.524 -1369.818)"><path class="a" d="M240.97,1016.432c-15.346,2.835-32.673-8.527-27.227,10.374s-16.336,32.13,0,43,13.861,16.065,27.227,11.813,26.237-7.56,27.722-18.428,3.96-19.373-2.475-26.933c-1.841-2.162-.856-13.035-3.58-16.6C256.218,1011.263,240.97,1016.432,240.97,1016.432Z" transform="translate(943.847 354.96)"/><path class="b" d="M2557.98-405.375a60.869,60.869,0,0,0-2.173-6.079,60.279,60.279,0,0,0-3.643-6.29c-1.762-2.767-1.343-5.048,1.727-6.184a56.363,56.363,0,0,1,8.694-2.094c2.146-.423,2.74-.938,2.871-3.156s.583-2.886,2.772-3.26a10.466,10.466,0,0,1,3.66.057c1.977.38,2.393,1.009,2.528,3.014.164,2.44.718,2.928,3.159,3.391a47.416,47.416,0,0,1,7.738,1.829c3.556,1.325,4.149,3.7,2.1,6.871-2.312,3.571-4.392,7.237-5.228,11.489-.971,4.937.461,9.279,3.274,13.646l4.589-10.755c-.752-.449-1.483-.859-2.187-1.31-2.026-1.294-2.85-4.073-1.68-5.839a1.327,1.327,0,0,1,1.114-.525,1.258,1.258,0,0,1,.574,1.069c-.386,2.822,0,3.488,2.832,4.594,2.539-3.226,4.587-3.949,6.984-2.465,2.194,1.359,2.5,3.661,1.026,6.919a19.347,19.347,0,0,1,2.151,3.046,5.168,5.168,0,0,1-.655,5.149q-2.993,4.611-5.924,9.262c-1.741,2.75-.594,5.211,2.638,5.7a5.187,5.187,0,0,1,4.813,5.546,7.949,7.949,0,0,1-.057,1.989c-.1.391-.6.679-.928,1.014-.278-.331-.725-.628-.8-1a18.454,18.454,0,0,1-.069-2.134,3.6,3.6,0,0,0-3.383-3.59c-4.344-.634-6.22-4.65-3.883-8.4,2.014-3.231,4.118-6.406,6.129-9.64,1.223-1.966.722-3.781-1.376-5.007q-1.711,2.6-3.432,5.208c-1.623,2.465-3.282,4.907-4.837,7.414a3.5,3.5,0,0,0-.374,1.963c.13,1.943.476,3.875.558,5.819.086,2.026-.953,3.22-2.947,2.928-3.48-.509-5.683.8-7.037,3.912a4.72,4.72,0,0,1-1.028,1.534,7.241,7.241,0,0,1-1.534.879,4.507,4.507,0,0,1-.192-1.739c.458-1.439,1.1-2.821,1.729-4.388h-5.321c0,1.6.077,3.165-.043,4.712-.04.517-.585.995-.9,1.49-.314-.494-.846-.966-.9-1.488a27.171,27.171,0,0,1-.035-3.852c.034-.882-.425-1-1.149-1.011-.767-.01-1.143.209-1.112,1.049a26.767,26.767,0,0,1-.036,3.851c-.055.511-.611.968-.938,1.449-.3-.463-.805-.906-.854-1.394a30.89,30.89,0,0,1-.047-3.852c.021-.79-.272-1.111-1.079-1.09a5.332,5.332,0,0,0-3.851,1.124c-3.8,3.237-8.15,5.57-13.343,5.267a16.271,16.271,0,0,1-5.742-1.481,7.446,7.446,0,0,1-4.718-7.584c.163-4.42-.011-8.852-.058-13.278a12.26,12.26,0,0,1,8.233-12.028,59.68,59.68,0,0,1,8.839-2.1A21.062,21.062,0,0,1,2557.98-405.375Zm4.921,28.415c5.322,0,10.366.021,15.409-.041a1.71,1.71,0,0,0,1.179-.913c1.028-2.25,1.965-4.541,2.92-6.824.68-1.624,1.9-3.276,1.847-4.88s-1.4-3.141-2.184-4.709c-.127-.255-.257-.51-.374-.771a17.725,17.725,0,0,1-1.515-10.157c.74-4.836,3-8.991,5.623-13,1.427-2.175,1.189-3.108-1.151-4.21a9.459,9.459,0,0,0-2.146-.754c-1.818-.361-3.65-.665-5.485-.932-2.682-.391-3.932-1.533-4.386-4.1-.419-2.37-.419-2.373-2.915-2.341-.428.005-.854.057-1.282.071-.748.023-1.021.355-1.091,1.143-.335,3.809-1.458,4.767-5.2,5.33a42.379,42.379,0,0,0-7.582,1.856c-1.868.65-1.924,1.647-.879,3.356a76.379,76.379,0,0,1,3.969,6.925c2.986,6.281,3.1,12.554-.4,18.75-1.19,2.11-2.219,4.313-3.281,6.494a14.531,14.531,0,0,0-.616,1.934,21.179,21.179,0,0,0,7.336-4.762,6.241,6.241,0,0,1,1.551-.764,6.558,6.558,0,0,1,.607,1.74c.087,1.614.036,3.236.037,4.855C2562.9-381.482,2562.9-379.3,2562.9-376.959Zm-4.844-26.3c-2.811-.425-2.95-.327-3.223,2.054-.006.047.011.111-.014.14-.281.324-.569.642-.854.961-.329-.325-.817-.6-.95-.989a6.887,6.887,0,0,1-.138-1.776c-2.128-.027-2.163,0-2.167,1.892a32.236,32.236,0,0,1-.049,3.7c-.059.5-.636.938-.978,1.4-.289-.468-.791-.92-.826-1.406-.109-1.5-.04-3.015-.04-4.542-2.167.251-2.3.392-2.315,2.2,0,.333.106.731-.039.983a5.767,5.767,0,0,1-.948,1.021,4.672,4.672,0,0,1-.873-.939,4.089,4.089,0,0,1-.193-1.239c-1.3.681-1.965,1.473-1.851,2.894a28.7,28.7,0,0,1-.04,4.418c-.028.366-.573.693-.88,1.039-.307-.347-.764-.65-.884-1.053a6.084,6.084,0,0,1-.037-1.678c-1.414,3.124-.777,6.262,1.443,7.941a12.4,12.4,0,0,1,8.884-5.122c3.239-.3,4.5-2.078,5.408-4.65a32.683,32.683,0,0,0,1.166-3.81A32.057,32.057,0,0,0,2558.057-403.257Zm-17.907,18.113c0,2.806.052,5.448-.019,8.087a4.711,4.711,0,0,0,1.826,3.987c3.121,2.565,6.687,3,10.5,2.1,2.372-.563,2.361-.6,2.363-2.976,0-1.951.01-3.9.014-5.854,0-1.027,0-2.054,0-3.106-2.3.336-2.323.357-2.379,2.3-.006.19.063.434-.029.56a11.135,11.135,0,0,1-.868.96c-.336-.322-.825-.587-.972-.979a6.017,6.017,0,0,1-.128-1.7h-2.224c0,1.684.063,3.253-.042,4.81-.029.421-.565.809-.868,1.212-.321-.384-.874-.742-.92-1.157a31.037,31.037,0,0,1-.036-3.422c0-2.083-.094-2.178-2.3-2.275a5,5,0,0,1-.123,1.392c-.124.331-.575.817-.789.774a1.828,1.828,0,0,1-.932-.811,1.293,1.293,0,0,1-.038-.839C2542.453-383.611,2541.609-384.42,2540.15-385.143Zm42.368,5.15.272.132,12.945-19.567-.249-.493c-.456.1-.908.212-1.367.285-.419.067-.923.237-1.244.075a1.144,1.144,0,0,1-.249-1.081,18.771,18.771,0,0,1,1.6-2.855,1.158,1.158,0,0,1,1.083-.289c.271.117.435.635.511,1,.049.235-.147.521-.265.877l1.3.681a13.08,13.08,0,0,0,.773-1.319,2.639,2.639,0,0,0-1.248-3.39,2.643,2.643,0,0,0-3.364,1.036,7.746,7.746,0,0,0-.492,1.028q-4.694,11.1-9.378,22.2C2582.909-381.121,2582.724-380.553,2582.518-379.993Zm-25.788,7.408c1.24-.8,2.158-1.453,3.13-2.009a2.291,2.291,0,0,0,1.182-2.357c-.077-2.229-.023-4.463-.023-6.694v-3.426c-1.465,1.021-2.681,1.83-3.844,2.71a1.361,1.361,0,0,0-.426.961C2556.719-379.94,2556.73-376.479,2556.73-372.585Zm-3.574-17.355c-3.759.659-6.979,1.755-9.414,4.794a11.114,11.114,0,0,0,6.815,1.269,1.037,1.037,0,0,0,.723-.552C2551.908-386.164,2552.477-387.92,2553.156-389.94Zm29.967,12.977a26.755,26.755,0,0,0,3.224-.04c.381-.051,1-.541,1-.839.023-1.468-.123-2.939-.21-4.409l-.439-.084Z" transform="translate(-1405.621 1802.391)"/></g></svg>