<svg xmlns="http://www.w3.org/2000/svg" width="512.333" height="400.107" viewBox="0 0 512.333 400.107"><defs><style>.a,.c,.f,.i,.j,.k,.n{fill:none;}.a{stroke:#d1cbc7;stroke-width:3px;}.a,.c,.f,.i,.j,.k{stroke-linecap:round;stroke-linejoin:round;}.b{fill:#8bb8c0;}.c,.n{stroke:#fff;}.c{stroke-width:2px;}.d{fill:#d1cbc7;}.e{fill:#fbca9a;}.f,.j{stroke:#29314a;}.f{stroke-width:4px;}.g{fill:#ffb1a5;}.h{fill:#e2837f;}.i{stroke:#e2837f;}.k{stroke:#eee;}.l{fill:#fff;}.m{fill:#29314a;}.n{stroke-miterlimit:10;}.o{fill:#3d676e;}</style></defs><g transform="translate(-32.934 -61.888)"><g transform="translate(34.434 63.388)"><rect class="a" width="509.333" height="397.107"/><line class="a" x2="509.333" transform="translate(0 46.107)"/><g transform="translate(26.487 16.677)"><circle class="a" cx="5.886" cy="5.886" r="5.886"/><circle class="a" cx="5.886" cy="5.886" r="5.886" transform="translate(30.46)"/><circle class="a" cx="5.886" cy="5.886" r="5.886" transform="translate(60.92)"/></g><g transform="translate(301.668 65.531)"><g transform="translate(27.824 18.035)"><circle class="b" cx="10.595" cy="10.595" r="10.595"/><path class="c" d="M318.141,143.175l5,4.856,7.21-8.093" transform="translate(-313.653 -133.39)"/><g transform="translate(39.277 3.403)"><rect class="d" width="92.9" height="4.414"/><rect class="d" width="69.356" height="4.414" transform="translate(0 9.969)"/></g></g><g transform="translate(27.824 47.759)"><circle class="b" cx="10.595" cy="10.595" r="10.595"/><path class="c" d="M318.141,168.425l5,4.856,7.21-8.093" transform="translate(-313.653 -158.64)"/><g transform="translate(39.277 3.403)"><rect class="d" width="92.9" height="4.414"/><rect class="d" width="69.356" height="4.414" transform="translate(0 9.969)"/></g></g><g transform="translate(27.824 77.483)"><circle class="b" cx="10.595" cy="10.595" r="10.595"/><path class="c" d="M318.141,193.675l5,4.856,7.21-8.093" transform="translate(-313.653 -183.89)"/><g transform="translate(39.277 3.403)"><rect class="d" width="92.9" height="4.414"/><rect class="d" width="69.356" height="4.414" transform="translate(0 9.969)"/></g></g><rect class="a" width="186.782" height="118.897"/></g><g transform="translate(301.668 194.875)"><g transform="translate(44.185 23.691)"><path class="a" d="M429.858,325.18H328.227V249.055" transform="translate(-328.227 -249.055)"/><rect class="b" width="17.578" height="57.683" transform="translate(13.743 10.202)"/><path class="e" d="M0,0H17.578V36.493H0Z" transform="translate(42.026 31.392)"/><path class="b" d="M0,0H17.578V48.593H0Z" transform="translate(72.241 19.292)"/></g><rect class="a" width="186.782" height="118.897"/></g><g transform="translate(301.668 324.219)"><g transform="translate(27.824 16.383)"><circle class="b" cx="10.595" cy="10.595" r="10.595"/><path class="c" d="M318.141,361.522l5,4.856,7.21-8.093" transform="translate(-313.653 -351.736)"/><g transform="translate(39.277 3.403)"><rect class="d" width="92.9" height="4.414"/><rect class="d" width="69.356" height="4.414" transform="translate(0 9.969)"/></g></g><g transform="translate(27.824 46.107)"><circle class="b" cx="10.595" cy="10.595" r="10.595"/><path class="c" d="M318.141,386.771l5,4.856,7.21-8.093" transform="translate(-313.653 -376.986)"/><g transform="translate(39.277 3.403)"><rect class="d" width="92.9" height="4.414"/><rect class="d" width="69.356" height="4.414" transform="translate(0 9.969)"/></g></g><rect class="a" width="186.782" height="72.888" transform="translate(0 0)"/></g></g><g transform="translate(40.808 133.745)"><g transform="translate(307.262 18.819)"><line class="f" x1="40.332" y2="97.589" transform="translate(40.088)"/><path class="g" d="M300.86,231.542l15.3-30.9L346.771,181.8l9.123,9.123,20.307,1.766-8.829,38.847-20.012,3.826-7.605,17.364Z" transform="translate(-300.86 -131.581)"/><path class="h" d="M300.86,226.434l38.894,21.19,6.411-14.637-37.478-22.358Z" transform="translate(-300.86 -126.474)"/><path class="i" d="M349.249,189.555l6.769,6.18s-5.3,5-9.123,4.414-8.535-5.274-8.535-5.274" transform="translate(-294.215 -130.208)"/><path class="i" d="M323.693,209.9s16.748,2.015,22.893-12.236" transform="translate(-296.814 -128.771)"/><line class="i" x2="15.352" y2="2.394" transform="translate(57.762 68.513)"/><line class="i" x2="24.975" y2="6.909" transform="translate(45.626 75.057)"/><path class="i" d="M338.03,205.013l-6.836,11.821,12.361,8.044" transform="translate(-295.485 -127.469)"/><line class="i" x2="27.32" y2="11.538" transform="translate(40.828 81.223)"/></g><g transform="translate(0 82.876)"><path class="b" d="M173.063,193.556s-25.253,2.55-31.452,15.891c0,0-38.377,14.518-48.971,34.531-9.954,18.8-58.711,76.063-52.193,131.088a32.7,32.7,0,0,0,10.382,20.48c7.286,6.584,19.571,14.025,37.888,14.025v25.113H293.94l-6.278-53.758s25.113,21.974,54.151-.785,49.442-136.947,49.442-136.947l-41.594-24.329-37.278,69.063-45.125-49.835s-21.19-24.328-54.544-32.176C212.713,205.915,216.6,196.5,173.063,193.556Z" transform="translate(-39.849 -193.556)"/><path class="e" d="M144.108,198.807l12.657,234.946H196.5L173.461,198.807Z" transform="translate(-21.374 -192.626)"/><g transform="translate(48.867 12.359)"><path class="j" d="M127.632,207.055s-10.222,18.835-8.75,24.133,18.835,11.772,18.835,11.772" transform="translate(-74.737 -203.523)"/><path class="j" d="M131.741,240.805s-14.766,11.478-11.823,19.129S152,331.743,152,331.743" transform="translate(-74.596 -197.543)"/><path class="j" d="M187.505,204.055s15.5,22.661,15.5,28.253-20.9,9.418-20.9,9.418" transform="translate(-63.508 -204.055)"/><path class="j" d="M188.294,237.555s15.009,20.012,14.715,25.9-21.778,60.92-20.9,68.866" transform="translate(-63.512 -198.119)"/><path class="j" d="M252.708,367.769s-11.183-89.075-15.6-99.964" transform="translate(-53.762 -192.759)"/><path class="j" d="M272.744,273.722S259.5,292.066,264.8,308.253" transform="translate(-49.077 -191.71)"/><path class="k" d="M145.469,225.87l16.4-11.917,14.209,11.306" transform="translate(-70 -202.301)"/><path class="l" d="M164.575,227.618l4.678-6.934-8.46-6.731-9.262,6.731,6.149,7.432-2.843,128,12.76,9.025,11.824-10.262Z" transform="translate(-68.926 -202.301)"/><line class="j" y1="128.609" x2="9.418" transform="translate(0 75.046)"/><line class="j" x2="46.785" y2="27.321" transform="translate(251.698 30.081)"/></g></g><g transform="translate(101.762)"><path class="g" d="M143.36,174.222l.981,36.885s3.728,8.437,16.677,8.632,12.753-10.2,12.753-10.2l-.981-35.316Z" transform="translate(-123.269 -114.106)"/><path class="h" d="M143.36,174.222l.113,4.266c.838,2.339,6.842,16.669,30.074,22.984h0l-.757-27.25Z" transform="translate(-123.269 -114.106)"/><path class="g" d="M184.308,168.987c-.336-1.168-1.7-3.067-3.423-5.124-3.137-14.97-6.041-35.948-28.666-29.9-15.865,4.243-16.35,19.932-14.5,31.052a5.555,5.555,0,0,0-5.26-.119c-3,1.734-3.416,6.638-.924,10.955s6.947,6.411,9.95,4.677a4.451,4.451,0,0,0,.66-.478c6.559,12.948,26.449,23.439,35.387,17.481,8.53-5.687,7.525-14.552,4.96-26.4C183.8,170.8,184.641,170.15,184.308,168.987Z" transform="translate(-125.653 -121.428)"/><path class="m" d="M181.058,166.737c-2.889.769-8.138.019-8.138.019l-2.158-.245c-12.142,2.126-16.065,9.843-16.065,9.843-12.109-8.771-8.764-18.682-8.764-18.682l-7.74,4.012a15.022,15.022,0,0,1,2.48,13.98c6.559,12.948,22.241,25.964,36.466,19.194C186.552,190.377,185.4,179.912,181.058,166.737Z" transform="translate(-124.184 -117.039)"/><path class="m" d="M138.356,166.744l6.066,7.5s7.26-13.538,3.336-26.879a14.45,14.45,0,0,0,11.183,0c5.886-2.551,16.294-3.031,17.63,0,0,0,8.269-6.475,6.11-14.323s-23.347-16.873-36.3-1.569l-4.905,7.259s-5.3-4.108-12.049,2.695c-5.307,5.347-3.45,21.242,2.345,26.372C131.775,167.8,133.468,164.933,138.356,166.744Z" transform="translate(-126.293 -123.155)"/><g transform="translate(12.063 27.913)"><path class="n" d="M170.677,157.437c.583,4.991-2.4,9.442-6.665,9.94s-8.2-3.143-8.778-8.134,2.4-9.441,6.665-9.94S170.093,152.447,170.677,157.437Z" transform="translate(-133.241 -146.442)"/><path class="n" d="M184.029,155.278c.584,4.991-1.426,9.327-4.486,9.685s-6.017-3.4-6.6-8.389,1.424-9.327,4.486-9.685S183.445,150.287,184.029,155.278Z" transform="translate(-130.108 -146.866)"/><line class="n" y1="1.287" x2="5.4" transform="translate(37.435 9.708)"/><line class="n" y1="2.876" x2="21.992" transform="translate(0 12.801)"/></g></g><path class="o" d="M165.984,399.811H71.671L54.949,278.168h94.313Z" transform="translate(-37.173 -95.687)"/><g transform="translate(12.638 229.004)"><path class="g" d="M50.584,344.279l11.614,31.8,27.481-2.743-.8-8.012L96.2,364l1.6-10.318,3.643-.532-.065-11.586-32.5-3.9.853-5.118,22.063-6.151-3.722-8.7-30.608,5.576Z" transform="translate(-50.584 -317.688)"/><line class="i" x1="35.256" y2="0.244" transform="translate(11.957 35.989)"/><line class="i" x1="21.458" y2="2.142" transform="translate(16.837 47.632)"/><line class="i" x1="5.985" y1="0.405" transform="translate(12.309 19.566)"/></g></g></g></svg>