<svg xmlns="http://www.w3.org/2000/svg" width="74.273" height="68.241" viewBox="0 0 74.273 68.241"><defs><style>.a{fill:#e8f1f3;}.b{fill:#077082;}</style></defs><g transform="translate(-1572 -1369.818)"><path class="a" d="M240.97,1016.432c-15.346,2.835-32.673-8.527-27.227,10.374s-16.336,32.13,0,43,13.861,16.065,27.227,11.813,26.237-7.56,27.722-18.428,3.96-19.373-2.475-26.933c-1.841-2.162-.856-13.035-3.58-16.6C256.218,1011.263,240.97,1016.432,240.97,1016.432Z" transform="translate(1375.847 354.96)"/><g transform="translate(1571.75 1372.514)"><path class="b" d="M319.1,126.5v1.665h6.957a4.724,4.724,0,0,1,4.719,4.719c0,.061,0,.123,0,.185a4.719,4.719,0,0,1-9.361.648h2.425v-1.665h-4.164v.833a6.392,6.392,0,0,0,6.384,6.384q.123,0,.248,0a6.407,6.407,0,0,0,6.132-6.132q0-.124,0-.247a6.392,6.392,0,0,0-6.384-6.384H319.1Z" transform="translate(-283.444 -112.455)"/><path class="b" d="M78.386,139.264q.125,0,.248,0a6.391,6.391,0,0,0,6.384-6.384v-.833H80.855v1.665H83.28a4.727,4.727,0,0,1-4.645,3.886c-.061,0-.123,0-.185,0a4.734,4.734,0,0,1-4.531-4.53q0-.093,0-.185a4.724,4.724,0,0,1,4.719-4.719H97.992V126.5H78.634a6.391,6.391,0,0,0-6.384,6.384c0,.082,0,.165,0,.248A6.407,6.407,0,0,0,78.386,139.264Z" transform="translate(-64.006 -112.455)"/><path class="b" d="M0,0H1.665V5.552H0Z" transform="matrix(0.866, -0.5, 0.5, 0.866, 19.569, 2.648)"/><path class="b" d="M0,0H1.665V5.552H0Z" transform="matrix(0.5, -0.866, 0.866, 0.5, 13.779, 9.049)"/><path class="b" d="M0,0H5.552V1.665H0Z" transform="matrix(0.866, -0.5, 0.5, 0.866, 37.817, 10.382)"/><path class="b" d="M0,0H5.552V1.665H0Z" transform="matrix(0.5, -0.866, 0.866, 0.5, 33.449, 6.623)"/><path class="b" d="M165.331,412.929v-5.452l-9.705-1.239-.211,1.652,8.251,1.053v3.986H147.955v1.665h17.154v1.665H123.75v1.665h43.025v-5Z" transform="translate(-109.788 -361.133)"/><path class="b" d="M1.915,277.926H36.5v-1.665h-7.05v-1.744a4.719,4.719,0,0,1,4.709-4.72,4.826,4.826,0,0,1,.608.039l9.208,1.175.211-1.652-.3-.038V252.889H42.22v16.219l-2.332-.3V255.553a3.053,3.053,0,1,0-6.107,0v12.59a6.32,6.32,0,0,0-2.11.495V255.553a3.053,3.053,0,1,0-6.107,0v13.085a6.317,6.317,0,0,0-2.11-.495v-12.59a3.053,3.053,0,1,0-6.107,0V268.81l-2.332.3V252.889H13.352V269.32L1.693,270.809v5.452H.25v5H12.3v-1.665H1.915Zm33.531-22.373a1.388,1.388,0,1,1,2.776,0V268.6l-2.776-.354Zm-8.216,0a1.388,1.388,0,1,1,2.776,0v14.124a6.43,6.43,0,0,0-1.388,1.686,6.43,6.43,0,0,0-1.388-1.686Zm-8.216,0a1.388,1.388,0,1,1,2.776,0v12.69l-2.776.354ZM3.359,272.275l19.11-2.44a4.829,4.829,0,0,1,.608-.039,4.719,4.719,0,0,1,4.709,4.72v1.745H3.359Z" transform="translate(0 -224.465)"/><path class="b" d="M248.25,0h1.665V5.552H248.25Z" transform="translate(-220.464)"/><path class="b" d="M278.25,176.5h1.665v1.665H278.25Z" transform="translate(-247.133 -156.903)"/><path class="b" d="M218.25,176.5h1.665v1.665H218.25Z" transform="translate(-193.795 -156.903)"/><path class="b" d="M248.25,176.5h1.665v1.665H248.25Z" transform="translate(-220.464 -156.903)"/><path class="b" d="M378.75,176.5h1.665v1.665H378.75Z" transform="translate(-336.475 -156.903)"/><path class="b" d="M117.75,176.5h1.665v1.665H117.75Z" transform="translate(-104.454 -156.903)"/></g></g></svg>