<svg xmlns="http://www.w3.org/2000/svg" xmlns:xlink="http://www.w3.org/1999/xlink" width="120" height="120" viewBox="0 0 120 120"><defs><style>.a{fill:#8bb8c0;}.b{fill:#fff;}.c{filter:url(#a);}</style><filter id="a" x="0" y="0" width="120" height="120" filterUnits="userSpaceOnUse"><feOffset dy="3" input="SourceAlpha"/><feGaussianBlur stdDeviation="3" result="b"/><feFlood flood-opacity="0.161"/><feComposite operator="in" in2="b"/><feComposite in="SourceGraphic"/></filter></defs><g transform="translate(-1456 -731)"><g class="c" transform="matrix(1, 0, 0, 1, 1456, 731)"><rect class="a" width="102" height="102" rx="10" transform="translate(9 6)"/></g><g transform="translate(1480 752)"><g transform="translate(41.122 22.007)"><path class="b" d="M295.385,157.143a1.4,1.4,0,0,0-1.956.332l-.027.038a1.4,1.4,0,1,0,2.288,1.624l.027-.038A1.4,1.4,0,0,0,295.385,157.143Z" transform="translate(-293.144 -156.884)"/></g><g transform="translate(30.57 25.728)"><path class="b" d="M227.523,183.924a1.4,1.4,0,0,0-1.974-.195,17.385,17.385,0,0,1-6.582,3.382,1.4,1.4,0,1,0,.724,2.71,20.173,20.173,0,0,0,7.638-3.924A1.4,1.4,0,0,0,227.523,183.924Z" transform="translate(-217.925 -183.411)"/></g><g transform="translate(0 7.575)"><path class="b" d="M67.614,78.194A4.213,4.213,0,0,0,63.406,82.4v.7a11.94,11.94,0,0,1-9.895,11.747,6.724,6.724,0,0,0,1.162-3.785v-.974a6.762,6.762,0,0,0-13.524,0v.974a6.721,6.721,0,0,0,1.107,3.7A11.943,11.943,0,0,1,32.807,83.1v-.7a4.208,4.208,0,0,0-8.417,0v.7a20.173,20.173,0,0,0,1.7,8.145H16.543V77.121a1.4,1.4,0,0,0-1.017-1.349A17.616,17.616,0,0,1,2.806,58.91v-.7a1.4,1.4,0,0,1,2.806,0v.7A14.746,14.746,0,0,0,20.34,73.639h6.751A14.746,14.746,0,0,0,41.821,58.91v-.7a1.4,1.4,0,0,1,2.806,0v.7a17.412,17.412,0,0,1-1.155,6.26,1.4,1.4,0,0,0,2.62,1,20.207,20.207,0,0,0,1.341-7.265v-.7a4.208,4.208,0,1,0-8.417,0v.7a11.941,11.941,0,0,1-9.894,11.747,6.723,6.723,0,0,0,1.161-3.785V65.9a6.762,6.762,0,1,0-13.524,0v.974a6.72,6.72,0,0,0,1.107,3.7A11.943,11.943,0,0,1,8.417,58.91v-.7a4.208,4.208,0,1,0-8.417,0v.7A20.138,20.138,0,0,0,4.187,71.259a20.554,20.554,0,0,0,9.55,6.89v14.5a1.4,1.4,0,0,0,1.4,1.4H15.4v22.791a1.4,1.4,0,0,0,2.806,0V94.054h9.393q.46.715.983,1.4c.093.121.19.239.285.358v21.034a1.4,1.4,0,0,0,2.806,0V98.677a20.506,20.506,0,0,0,6.459,3.665v14.5a1.4,1.4,0,0,0,2.806,0v-15.53a1.4,1.4,0,0,0-1.017-1.349A17.616,17.616,0,0,1,27.2,83.1v-.7A1.4,1.4,0,0,1,30,82.4v.7A14.746,14.746,0,0,0,44.731,97.833h6.751A14.746,14.746,0,0,0,66.211,83.1v-.7a1.4,1.4,0,0,1,2.806,0v.7A17.561,17.561,0,0,1,56,100.048a1.4,1.4,0,0,0-1.041,1.355v10.158a1.4,1.4,0,1,0,2.806,0v-9.11A20.372,20.372,0,0,0,71.822,83.1v-.7A4.213,4.213,0,0,0,67.614,78.194ZM19.564,65.9a3.956,3.956,0,1,1,7.913,0v.974a3.956,3.956,0,0,1-7.913,0Zm32.3,25.168a3.956,3.956,0,0,1-7.913,0v-.974a3.956,3.956,0,0,1,7.913,0Z" transform="translate(0 -54)"/></g><g transform="translate(54.961 69.017)"><path class="b" d="M394.195,492.411a1.4,1.4,0,1,0,.411.992A1.413,1.413,0,0,0,394.195,492.411Z" transform="translate(-391.8 -492)"/></g><g transform="translate(22.117 52.464)"><path class="b" d="M159.07,374a1.4,1.4,0,0,0-1.4,1.4v16.553a1.4,1.4,0,0,0,2.806,0V375.4A1.4,1.4,0,0,0,159.07,374Z" transform="translate(-157.667 -374)"/></g><g transform="translate(63.967 11.503)"><path class="b" d="M457.4,82a1.4,1.4,0,0,0-1.4,1.4v1.744a1.4,1.4,0,0,0,2.806,0V83.4A1.4,1.4,0,0,0,457.4,82Z" transform="translate(-456 -82)"/></g><g transform="translate(63.967 19.859)"><path class="b" d="M457.4,141.57a1.4,1.4,0,0,0-1.4,1.4v1.744a1.4,1.4,0,1,0,2.806,0v-1.744A1.4,1.4,0,0,0,457.4,141.57Z" transform="translate(-456 -141.57)"/></g><g transform="translate(67.273 16.553)"><path class="b" d="M482.716,118h-1.744a1.4,1.4,0,0,0,0,2.806h1.744a1.4,1.4,0,1,0,0-2.806Z" transform="translate(-479.57 -118)"/></g><g transform="translate(58.917 16.553)"><path class="b" d="M423.146,118H421.4a1.4,1.4,0,0,0,0,2.806h1.744a1.4,1.4,0,0,0,0-2.806Z" transform="translate(-420 -118)"/></g><g transform="translate(29.441)"><path class="b" d="M211.276,0a1.4,1.4,0,0,0-1.4,1.4V3.146a1.4,1.4,0,1,0,2.806,0V1.4A1.4,1.4,0,0,0,211.276,0Z" transform="translate(-209.873)"/></g><g transform="translate(29.441 8.356)"><path class="b" d="M211.276,59.57a1.4,1.4,0,0,0-1.4,1.4v1.744a1.4,1.4,0,1,0,2.806,0V60.973A1.4,1.4,0,0,0,211.276,59.57Z" transform="translate(-209.873 -59.57)"/></g><g transform="translate(32.747 5.05)"><path class="b" d="M236.589,36h-1.744a1.4,1.4,0,0,0,0,2.806h1.744a1.4,1.4,0,0,0,0-2.806Z" transform="translate(-233.443 -36)"/></g><g transform="translate(24.391 5.05)"><path class="b" d="M177.019,36h-1.744a1.4,1.4,0,1,0,0,2.806h1.744a1.4,1.4,0,1,0,0-2.806Z" transform="translate(-173.873 -36)"/></g></g></g></svg>