<svg xmlns="http://www.w3.org/2000/svg" width="82.874" height="68.241" viewBox="0 0 82.874 68.241"><defs><style>.a{fill:#e8f1f3;}.b{fill:#077082;}</style></defs><g transform="translate(-1141 -1003.912)"><path class="a" d="M240.97,1016.432c-15.346,2.835-32.673-8.527-27.227,10.374s-16.336,32.13,0,43,13.861,16.065,27.227,11.813,26.237-7.56,27.722-18.428,3.96-19.373-2.475-26.933c-1.841-2.162-.856-13.035-3.58-16.6C256.218,1011.263,240.97,1016.432,240.97,1016.432Z" transform="translate(953.449 -10.946)"/><g transform="translate(1141 996.25)"><path class="b" d="M393.811,381.471a1.454,1.454,0,0,0-1.271-.239l-5.039,1.339a1.912,1.912,0,0,0-1.372,1.809v6.338a3.446,3.446,0,0,0-1.338-.267,2.839,2.839,0,1,0,3.154,2.821v-5.662l5.06-1.346a1.913,1.913,0,0,0,1.372-1.809v-1.787a1.488,1.488,0,0,0-.566-1.2Zm-9.019,12.8c-.725,0-1.338-.46-1.338-1s.613-1,1.338-1,1.338.46,1.338,1S385.517,394.276,384.792,394.276Zm7.727-9.763-4.573,1.216v-1.341a.157.157,0,0,1,.043-.068l4.573-1.215v1.339A.155.155,0,0,1,392.519,384.513Z" transform="translate(-335.425 -328.287)"/><path class="b" d="M477.968,145.434a.908.908,0,1,0-1.619.824c3.229,6.344,3.229,16.667,0,23.011a.908.908,0,1,0,1.618.824,30.414,30.414,0,0,0,0-24.659Z" transform="translate(-418.58 -120.653)"/><path class="b" d="M452.924,205.954a.908.908,0,0,0,1.221-.4,16.274,16.274,0,0,0,0-13.321.908.908,0,0,0-1.619.824,14.482,14.482,0,0,1,0,11.673.909.909,0,0,0,.4,1.221Z" transform="translate(-397.642 -161.786)"/><path class="b" d="M109.188,72.247a22.423,22.423,0,1,0-17.951,38.18q1.041.1,2.082.1a22.456,22.456,0,0,0,12.442-3.755.908.908,0,1,0-1.008-1.511,20.619,20.619,0,1,1,3.151-2.585.908.908,0,0,0,1.284,1.284A22.449,22.449,0,0,0,109.188,72.247Z" transform="translate(-62.335 -50.992)"/><path class="b" d="M118.1,112.653a.908.908,0,0,0-1.268-1.3,17.463,17.463,0,1,0,3.447-2.616.908.908,0,0,0,.911,1.571,15.693,15.693,0,1,1-3.09,2.345Z" transform="translate(-98.04 -86.768)"/><path class="b" d="M32.36,13.836l2.215,1.123L35.7,17.176a1.162,1.162,0,0,0,1.042.746h0a1.156,1.156,0,0,0,1.04-.749l1.123-2.215,2.214-1.122a1.1,1.1,0,0,0,0-2.086l-2.215-1.123L37.784,8.413a1.162,1.162,0,0,0-1.042-.751h0a1.158,1.158,0,0,0-1.042.747l-1.123,2.218L32.361,11.75a1.1,1.1,0,0,0,0,2.086Zm3.3-1.723a.909.909,0,0,0,.4-.4l.679-1.342.68,1.342a.908.908,0,0,0,.4.4l1.341.68-1.341.68a.908.908,0,0,0-.4.4l-.68,1.341-.68-1.341a.908.908,0,0,0-.4-.4l-1.341-.68Z" transform="translate(-27.783)"/><path class="b" d="M387.877,59.855h.9a.908.908,0,1,0,0-1.816h-.9a.908.908,0,1,0,0,1.816Z" transform="translate(-340.11 -44.277)"/><path class="b" d="M428.786,59.855h.9a.908.908,0,1,0,0-1.816h-.9a.908.908,0,1,0,0,1.816Z" transform="translate(-376.065 -44.277)"/><path class="b" d="M412.063,77.483a.908.908,0,0,0,.908-.908v-.9a.908.908,0,0,0-1.816,0v.9A.908.908,0,0,0,412.063,77.483Z" transform="translate(-361.367 -58.976)"/><path class="b" d="M412.063,36.571a.908.908,0,0,0,.908-.908v-.9a.908.908,0,0,0-1.816,0v.9A.908.908,0,0,0,412.063,36.571Z" transform="translate(-361.367 -23.018)"/><path class="b" d="M104.38,428.674h-.9a.908.908,0,0,0,0,1.816h.9a.908.908,0,0,0,0-1.816Z" transform="translate(-90.148 -370.031)"/><path class="b" d="M63.471,428.674h-.9a.908.908,0,0,0,0,1.816h.9a.908.908,0,0,0,0-1.816Z" transform="translate(-54.193 -370.031)"/><path class="b" d="M86.753,404.459a.908.908,0,0,0-.908.908v.907a.908.908,0,0,0,1.816,0v-.907A.908.908,0,0,0,86.753,404.459Z" transform="translate(-75.45 -348.748)"/><path class="b" d="M86.753,445.4a.908.908,0,0,0-.908.908v.9a.908.908,0,1,0,1.816,0v-.9A.908.908,0,0,0,86.753,445.4Z" transform="translate(-75.45 -384.729)"/><path class="b" d="M192.073,188.019a3.686,3.686,0,0,0-3.21,3.217,2.21,2.21,0,0,0,.814,1.724,3.055,3.055,0,0,0,1.972.653,4.158,4.158,0,0,0,.754-.07,3.685,3.685,0,0,0,3.206-3.217v-7.852a.926.926,0,0,0-.005-.1,1.5,1.5,0,0,0-.528-1.067,1.6,1.6,0,0,0-1.309-.333l-8.308,1.474a1.861,1.861,0,0,0-1.527,1.771v7.651a3.758,3.758,0,0,0-1.723-.063,3.686,3.686,0,0,0-3.21,3.217,2.211,2.211,0,0,0,.814,1.724,3.055,3.055,0,0,0,1.972.653,4.141,4.141,0,0,0,.753-.07,3.686,3.686,0,0,0,3.21-3.217V187.5l8.044-1.427v2.007a3.752,3.752,0,0,0-1.72-.062Zm0,3.738a1.541,1.541,0,0,1-1.234-.193.4.4,0,0,1-.16-.328c0-.525.737-1.249,1.723-1.431h0a2.323,2.323,0,0,1,.421-.04,1.286,1.286,0,0,1,.809.233.4.4,0,0,1,.16.328C193.793,190.851,193.058,191.574,192.073,191.756Zm-9.863,3.792a1.541,1.541,0,0,1-1.234-.193.4.4,0,0,1-.16-.328c0-.525.737-1.249,1.723-1.431a2.34,2.34,0,0,1,.422-.04,1.288,1.288,0,0,1,.811.233.4.4,0,0,1,.16.328C183.933,194.643,183.2,195.366,182.21,195.548Zm3.54-9.891v-1.4a.08.08,0,0,1,.025-.02l8.019-1.423v1.412Z" transform="translate(-157.325 -152.305)"/><path class="b" d="M4.23,146.258a.908.908,0,0,0-1.619-.824,30.413,30.413,0,0,0,0,24.659.908.908,0,1,0,1.619-.824C1,162.925,1,152.6,4.23,146.258Z" transform="translate(0 -120.653)"/><path class="b" d="M36.252,191.839a.908.908,0,0,0-1.221.4,16.3,16.3,0,0,0,0,13.32.908.908,0,0,0,1.619-.823,14.508,14.508,0,0,1,0-11.674A.908.908,0,0,0,36.252,191.839Z" transform="translate(-29.539 -161.788)"/></g></g></svg>