<svg xmlns="http://www.w3.org/2000/svg" xmlns:xlink="http://www.w3.org/1999/xlink" width="138" height="130" viewBox="0 0 138 130"><defs><style>.a{fill:#fbca9a;}.b,.c{fill:#fff;}.b{font-size:14px;font-family:Poppins-SemiBold, Poppins;font-weight:600;}.d{filter:url(#a);}</style><filter id="a" x="0" y="0" width="138" height="130" filterUnits="userSpaceOnUse"><feOffset input="SourceAlpha"/><feGaussianBlur stdDeviation="3" result="b"/><feFlood flood-opacity="0.161"/><feComposite operator="in" in2="b"/><feComposite in="SourceGraphic"/></filter></defs><g transform="translate(-351 -704)"><g class="d" transform="matrix(1, 0, 0, 1, 351, 704)"><rect class="a" width="120" height="112" rx="10" transform="translate(9 9)"/></g><text class="b" transform="translate(396 736)"><tspan x="0" y="0">PayPal</tspan></text><path class="c" d="M50.834,12.014a13.062,13.062,0,0,0-4.578-3.365A10.5,10.5,0,0,0,44.5,5.691C41.515,2.148,35.849.2,28.545.2,26.358.2,17.712.106,12.847,0A4.164,4.164,0,0,0,8.7,3.244L.1,41.946a4.154,4.154,0,0,0,4.053,5.062H6.716l-.28,1.262a4.154,4.154,0,0,0,4.053,5.062H20.9a4.165,4.165,0,0,0,4.073-3.34l1.845-9.24,9.749-.112.08-.009a18.36,18.36,0,0,0,7.721-3.048,19.138,19.138,0,0,0,5.264-5.343A23.982,23.982,0,0,0,53.132,23c.781-4.557.008-8.255-2.3-10.991ZM3.358,43.492a1.008,1.008,0,0,1-.2-.864l8.6-38.7a1.021,1.021,0,0,1,1.017-.8c4.882.106,13.568.2,15.765.2,6.272,0,11.215,1.6,13.56,4.379,1.683,2,2.223,4.838,1.605,8.442-.963,5.616-3.462,9.826-7.43,12.513a15.7,15.7,0,0,1-6.251,2.521l-9.685.111a2.734,2.734,0,0,0-2.858,2.161l-1.916,9.6a1.024,1.024,0,0,1-1,.821H4.154a1,1,0,0,1-.8-.383ZM50.043,22.475c-.962,5.616-3.462,9.826-7.43,12.513a15.7,15.7,0,0,1-6.251,2.521l-9.685.111a2.734,2.734,0,0,0-2.858,2.161l-1.916,9.6a1.024,1.024,0,0,1-1,.821H10.489a1.021,1.021,0,0,1-1-1.247l.432-1.944h4.644a4.165,4.165,0,0,0,4.073-3.34l1.845-9.24,9.749-.112.08-.009a18.36,18.36,0,0,0,7.721-3.048A19.155,19.155,0,0,0,43.3,25.916a23.99,23.99,0,0,0,3.5-9.235,18.736,18.736,0,0,0,.281-3.925,8.4,8.4,0,0,1,1.36,1.277c1.683,2,2.223,4.838,1.6,8.443Zm0,0" transform="translate(393.001 753.328)"/></g></svg>