<svg xmlns="http://www.w3.org/2000/svg" width="65.015" height="65.066" viewBox="0 0 65.015 65.066"><defs><style>.a{fill:#fbca9a;}</style></defs><g transform="translate(-0.203)"><path class="a" d="M65.218,284.854v-5.725H59.111v-3.817H57.075v-3.181h2.036v-5.725H43.888v1.908H57.2v1.908H17.715v1.908H55.166v3.181H13.626a1.59,1.59,0,1,1,0-3.181h2.181v-1.908H13.626a3.5,3.5,0,1,0,0,7H57.2v1.908H24.313v1.908h39v1.908H9.427a5.407,5.407,0,0,0,0,10.815H54.376v-1.908H9.427a3.5,3.5,0,1,1,0-7H61.274v3.181h-42.3v1.908h42.3v1.908H56.284v1.908h7.025v1.908H9.427a7.316,7.316,0,1,1,0-14.631H22.4v-1.908H13.626a5.407,5.407,0,1,1,0-10.815H41.98v-1.908H13.626a7.312,7.312,0,0,0-4.89,12.752,9.223,9.223,0,0,0,.691,18.42h55.79v-5.725H63.182v-7Z" transform="translate(0 -232.511)"/><path class="a" d="M117.7,436.406h1.908v1.908H117.7Z" transform="translate(-102.55 -380.882)"/><path class="a" d="M62.955,28.362l.425.283c.166.11,4.176,2.7,14.525,2.7s14.359-2.594,14.525-2.7l.425-.283V12.3l5.725-1.908V19.4a3.5,3.5,0,0,0-2.545,3.365v4.771h7V22.762a3.5,3.5,0,0,0-2.545-3.365V9.752l3.336-1.112L93.8,5.3l-.6,1.81,4.59,1.53L77.9,15.268,58.021,8.64,77.9,2.012,91.388,6.506l.6-1.81L77.9,0,51.986,8.64,62.955,12.3Zm38.169-5.6v2.863H97.944V22.762a1.59,1.59,0,1,1,3.181,0Zm-36.261-9.83L77.9,17.279l13.041-4.347v7.476H88.592v1.908h2.354v1.908H86.811v1.908h4.135v1.15c-1.23.6-5.187,2.158-13.041,2.158s-11.817-1.561-13.041-2.157Z" transform="translate(-45.195 0)"/><path class="a" d="M87.7,436.406h1.908v1.908H87.7Z" transform="translate(-76.367 -380.882)"/><path class="a" d="M295.7,190.406h1.908v1.908H295.7Z" transform="translate(-257.903 -166.181)"/></g></svg>