<svg xmlns="http://www.w3.org/2000/svg" width="79.898" height="57.903" viewBox="0 0 79.898 57.903"><defs><style>.a{fill:#fbca9a;}</style></defs><g transform="translate(0 -70.472)"><g transform="translate(0 70.472)"><g transform="translate(0 0)"><path class="a" d="M78.711,117.7H74.527V75.263a4.791,4.791,0,0,0-4.791-4.791H9.787A4.791,4.791,0,0,0,5,75.263V117.7H1.187A1.187,1.187,0,0,0,0,118.883V121.5a6.872,6.872,0,0,0,6.872,6.872H51.578a1.187,1.187,0,1,0,0-2.373H6.872a4.5,4.5,0,0,1-4.5-4.5v-1.434H30.34a4.236,4.236,0,0,0,4.229,4.153h10.76a4.236,4.236,0,0,0,4.229-4.153H77.525V121.5a4.5,4.5,0,0,1-4.5,4.5H57.115a1.187,1.187,0,1,0,0,2.373h15.91A6.872,6.872,0,0,0,79.9,121.5v-2.621A1.187,1.187,0,0,0,78.711,117.7Zm-33.382,4.153H34.569a1.86,1.86,0,0,1-1.856-1.78H47.185A1.86,1.86,0,0,1,45.328,121.849ZM72.154,117.7H7.369V75.263a2.42,2.42,0,0,1,2.418-2.418h59.95a2.42,2.42,0,0,1,2.418,2.418Z" transform="translate(0 -70.472)"/></g></g><g transform="translate(9.426 74.902)"><path class="a" d="M119.888,98.86H73.919a1.187,1.187,0,1,0,0,2.373H118.7v35.991H62.776V101.233h5.6a1.187,1.187,0,1,0,0-2.373H61.59a1.187,1.187,0,0,0-1.187,1.187v38.364A1.187,1.187,0,0,0,61.59,139.6h58.3a1.187,1.187,0,0,0,1.187-1.187V100.047A1.187,1.187,0,0,0,119.888,98.86Z" transform="translate(-60.403 -98.86)"/></g></g></svg>