<svg xmlns="http://www.w3.org/2000/svg" width="65.497" height="81.872" viewBox="0 0 65.497 81.872"><defs><style>.a{fill:#fbca9a;}</style></defs><g transform="translate(0)"><path class="a" d="M233.368,8.187a1.365,1.365,0,0,0,1.364-1.365V1.365a1.365,1.365,0,1,0-2.729,0V6.823A1.364,1.364,0,0,0,233.368,8.187Z" transform="translate(-200.619)"/><path class="a" d="M140.163,26.663l2.729,4.725a1.365,1.365,0,1,0,2.372-1.349l-.009-.016L142.526,25.3a1.365,1.365,0,1,0-2.372,1.349Z" transform="translate(-124.288 -20.411)"/><path class="a" d="M73.286,94.514l.016.009,4.725,2.729a1.364,1.364,0,1,0,1.38-2.354l-.016-.009L74.666,92.16a1.364,1.364,0,0,0-1.38,2.354Z" transform="translate(-68.414 -76.285)"/><path class="a" d="M56.19,185.365A1.365,1.365,0,0,0,54.826,184H49.368a1.365,1.365,0,0,0,0,2.729h5.458A1.365,1.365,0,0,0,56.19,185.365Z" transform="translate(-48.003 -152.616)"/><path class="a" d="M78.042,260.15l-.016.009L73.3,262.888a1.365,1.365,0,0,0,1.348,2.373l.016-.009,4.725-2.729a1.364,1.364,0,1,0-1.348-2.373Z" transform="translate(-68.414 -215.63)"/><path class="a" d="M370.391,262.9l-.016-.009-4.725-2.729a1.365,1.365,0,0,0-1.381,2.354l.016.009,4.725,2.729a1.365,1.365,0,0,0,1.381-2.354Z" transform="translate(-309.766 -215.63)"/><path class="a" d="M390.826,184h-5.458a1.365,1.365,0,1,0,0,2.729h5.458a1.365,1.365,0,0,0,0-2.729Z" transform="translate(-326.693 -152.616)"/><path class="a" d="M365.014,97.435a1.365,1.365,0,0,0,.682-.183l4.725-2.729a1.365,1.365,0,0,0-1.349-2.372l-.016.009-4.725,2.729a1.365,1.365,0,0,0,.682,2.546Z" transform="translate(-309.811 -76.285)"/><path class="a" d="M308.679,31.888h0a1.365,1.365,0,0,0,1.864-.5h0l2.729-4.725a1.365,1.365,0,1,0-2.354-1.381l-.009.016-2.729,4.725A1.365,1.365,0,0,0,308.679,31.888Z" transform="translate(-263.652 -20.411)"/><path class="a" d="M183.013,187.29a1.365,1.365,0,0,0,1.365-1.365v-15.01h2.729a5.458,5.458,0,1,0-5.458-5.458v2.729h-2.729v-2.729a5.458,5.458,0,1,0-5.458,5.458h2.729v15.01a1.365,1.365,0,1,0,2.729,0v-15.01h2.729v15.01A1.364,1.364,0,0,0,183.013,187.29Zm1.365-21.832a2.729,2.729,0,1,1,2.729,2.729h-2.729Zm-8.187,2.729h-2.729a2.729,2.729,0,1,1,2.729-2.729Z" transform="translate(-147.535 -132.71)"/><path class="a" d="M134.956,64.027a21.832,21.832,0,0,0-14.9,38.683,4.067,4.067,0,0,1,1.558,3.121v3.2a4.094,4.094,0,0,0,2.729,3.842v1.616a4.068,4.068,0,0,0,1.064,2.729,4.031,4.031,0,0,0,0,5.458,4.076,4.076,0,0,0,3.029,6.823,1.33,1.33,0,0,0,1.122-2.1,1.445,1.445,0,0,0-.153-.236,1.41,1.41,0,0,0-.379-.248c-.04-.02-.079-.037-.12-.053a1.447,1.447,0,0,0-.43-.086c-.014,0-.026-.008-.04-.008a1.365,1.365,0,0,1,0-2.729H133.9a1.365,1.365,0,0,0,0-2.729h-5.458a1.365,1.365,0,0,1,0-2.729H133.9a1.365,1.365,0,1,0,0-2.729h-5.458a1.365,1.365,0,0,1-1.365-1.365v-1.365H133.9a1.365,1.365,0,1,0,0-2.729h-8.187a1.365,1.365,0,0,1-1.365-1.365v-3.2a6.783,6.783,0,0,0-2.558-5.233,19.1,19.1,0,0,1,13.041-33.84A19.323,19.323,0,0,1,153,85.718a18.991,18.991,0,0,1-7.089,14.959,6.764,6.764,0,0,0-2.463,5.312v3.041a1.365,1.365,0,0,1-1.365,1.365h-4.094a1.365,1.365,0,1,0,0,2.729h2.729v1.365a1.365,1.365,0,0,1-1.365,1.365h-1.365a1.365,1.365,0,1,0,0,2.729h1.365a1.365,1.365,0,1,1,0,2.729h-1.365a1.365,1.365,0,1,0,0,2.729h1.365a1.365,1.365,0,1,1,0,2.729h-6.823a1.365,1.365,0,0,0,0,2.729h5.225a4.094,4.094,0,0,1-6.919,1.355,1.365,1.365,0,1,0-2.039,1.815,6.808,6.808,0,0,0,11.8-3.385,4.054,4.054,0,0,0,1.781-6.607,4.031,4.031,0,0,0,0-5.458,4.068,4.068,0,0,0,1.064-2.729v-1.616a4.094,4.094,0,0,0,2.729-3.842v-3.041a4.1,4.1,0,0,1,1.448-3.189,21.7,21.7,0,0,0,8.1-17.1A22.086,22.086,0,0,0,134.956,64.027Z" transform="translate(-101.148 -53.085)"/></g></svg>