<svg xmlns="http://www.w3.org/2000/svg" width="60.156" height="66.959" viewBox="0 0 60.156 66.959"><defs><style>.a{fill:#fbe29f;}.b{fill:#b2b0bc;}.c{fill:#a19dae;}.d{fill:#ffbd86;}.e{fill:#ed9b83;}.f{fill:#fed2a4;}.g{fill:#ff8997;}</style></defs><g transform="translate(-26.007)"><g transform="translate(26.989 0.981)"><g transform="translate(9.731 47.701)"><path class="a" d="M114.434,390.18l3.735,6.3-3.735,8.648H107.92A20.969,20.969,0,0,1,114.434,390.18Z" transform="translate(-107.92 -387.835)"/><path class="a" d="M200.788,372.25l3.736,8.648-3.736,8.648H190.025L186.29,380.9l3.735-8.648Z" transform="translate(-176.041 -372.25)"/><path class="a" d="M335.963,405.139h-6.513l-3.736-8.648,3.736-6.3A20.971,20.971,0,0,1,335.963,405.139Z" transform="translate(-297.232 -387.844)"/></g><path class="b" d="M47.413,34.779a27.279,27.279,0,1,1,54.557,0Z" transform="translate(-45.595 -7.5)"/><path class="b" d="M350.9,225.676a45.217,45.217,0,0,1-.939-9.588h-4.54l-12.706,17.865h11.5A6.833,6.833,0,0,0,350.9,225.676Z" transform="translate(-293.584 -188.809)"/><path class="b" d="M39.182,225.676a45.219,45.219,0,0,0,.939-9.588h4.54l12.706,17.865h-11.5A6.833,6.833,0,0,1,39.182,225.676Z" transform="translate(-38.303 -188.809)"/><path class="c" d="M49.808,223.322l-5.146-7.235h-4.54a45.211,45.211,0,0,1-.939,9.588,6.833,6.833,0,0,0,6.682,8.276h9.668A30.27,30.27,0,0,1,49.808,223.322Z" transform="translate(-38.303 -188.808)"/><path class="c" d="M55.856,35.963A30.473,30.473,0,0,1,70.222,10.315,27.322,27.322,0,0,0,47.413,37.226h8.472C55.867,36.807,55.856,36.386,55.856,35.963Z" transform="translate(-45.595 -9.947)"/><circle class="d" cx="6.229" cy="6.229" r="6.229" transform="translate(45.737 23.666)"/><path class="e" d="M165.2,372.25v17.3h-7.47V374.595a19.213,19.213,0,0,1,2.82-2.345Z" transform="translate(-141.485 -324.549)"/><path class="e" d="M304.621,374.6v14.949H297.15v-17.3h4.65A19.143,19.143,0,0,1,304.621,374.6Z" transform="translate(-262.672 -324.549)"/><path class="f" d="M121.96,125.73a33.4,33.4,0,0,1-14.982-5.518,3.7,3.7,0,0,0-4.222,0,33.4,33.4,0,0,1-14.981,5.518,6.413,6.413,0,0,0-5.646,6.3c0,.033,0,.066,0,.1v.09a22.739,22.739,0,0,0,45.477.1q0-.113,0-.226a6.432,6.432,0,0,0-5.646-6.364Z" transform="translate(-75.771 -104.896)"/><path class="d" d="M53.625,196.243a30.089,30.089,0,0,1-9.853-22.168,29.66,29.66,0,0,1,.4-4.868,6.45,6.45,0,0,0-3.322,2.638,4.77,4.77,0,0,0-1.113-.12,6.229,6.229,0,0,0,0,12.457,3.972,3.972,0,0,0,1.761-.35,22.725,22.725,0,0,0,12.125,12.41Z" transform="translate(-33.511 -148.059)"/><g transform="translate(11.074 30.335)"><ellipse class="g" cx="4.858" cy="3.869" rx="4.858" ry="3.869"/><ellipse class="g" cx="4.858" cy="3.869" rx="4.858" ry="3.869" transform="translate(26.331)"/></g></g><g transform="translate(26.007)"><path d="M170.459,221.828a.981.981,0,0,0,.981-.981v-1.986a.981.981,0,0,0-1.962,0v1.986A.981.981,0,0,0,170.459,221.828Z" transform="translate(-150.715 -189.386)"/><path d="M328.5,221.828a.981.981,0,0,0,.981-.981v-1.986a.981.981,0,0,0-1.962,0v1.986A.981.981,0,0,0,328.5,221.828Z" transform="translate(-288.089 -189.386)"/><path d="M234.834,234.239a.981.981,0,1,0-1.479-1.289,2.631,2.631,0,0,1-3.97,0,.981.981,0,1,0-1.479,1.289A4.593,4.593,0,0,0,234.834,234.239Z" transform="translate(-201.292 -202.192)"/><path d="M27.365,35.079c-.127.884-.279,1.745-.456,2.561a7.813,7.813,0,0,0,7.64,9.465h7.1a23.556,23.556,0,0,0,2.573,1.718c-.476.387-1.052.889-1.677,1.5h0a21.8,21.8,0,0,0-6.806,15.649.981.981,0,0,0,.981.981H75.451a.981.981,0,0,0,.981-.981,22.144,22.144,0,0,0-8.48-17.151,23.624,23.624,0,0,0,2.574-1.721h7.1a7.813,7.813,0,0,0,7.64-9.465c-.177-.817-.329-1.678-.456-2.562a7.189,7.189,0,0,0-.555-9.087A28.243,28.243,0,0,0,41.168,4.268a.981.981,0,0,0,1.039,1.664A26.283,26.283,0,0,1,82.1,24.384a7.17,7.17,0,0,0-3.816-.687A7.421,7.421,0,0,0,73.3,20.841a32.607,32.607,0,0,1-14.541-5.35,4.693,4.693,0,0,0-5.343,0,32.61,32.61,0,0,1-14.541,5.35A7.429,7.429,0,0,0,33.881,23.7a7.141,7.141,0,0,0-3.807.688,26.279,26.279,0,0,1,9.04-16.2.981.981,0,1,0-1.268-1.5,28.194,28.194,0,0,0-9.926,19.3,7.19,7.19,0,0,0-.555,9.088Zm5.446-9.436c-1.025,2.8-.09,7.693.871,10.457a5.247,5.247,0,1,1-.871-10.457Zm6.3-2.855A34.163,34.163,0,0,0,54.535,17.1a2.724,2.724,0,0,1,3.1,0,35.082,35.082,0,0,0,15.422,5.687,5.463,5.463,0,0,1,4.785,5.394,22.168,22.168,0,0,1-.415,4.356,22.605,22.605,0,0,1-1.174,3.935,21.772,21.772,0,0,1-40.332,0c-1.227-3.023-2.49-8.663-.65-11.348a5.477,5.477,0,0,1,3.841-2.335Zm42.961,3.87h0A5.245,5.245,0,0,1,78.494,36.1a23.99,23.99,0,0,0,1.31-7.926,7.469,7.469,0,0,0-.455-2.533,9.289,9.289,0,0,1,2.725,1.016ZM34.549,45.143a5.852,5.852,0,0,1-5.723-7.087q.135-.624.253-1.276a7.216,7.216,0,0,0,5.351,1.2A23.6,23.6,0,0,0,39.4,45.143Zm7.7,8.412V65H37.725A19.443,19.443,0,0,1,42.253,53.555Zm1.962-2.112a20.377,20.377,0,0,1,1.928-1.626,23.5,23.5,0,0,0,3.581,1.306V65H44.215ZM69.919,65V53.557A19.445,19.445,0,0,1,74.446,65ZM67.957,51.444V65h-5.51V60.9a.981.981,0,0,0-1.962,0V65h-8.8V51.574a24.232,24.232,0,0,0,8.8,0v5.4a.981.981,0,0,0,1.962,0V51.127a23.414,23.414,0,0,0,3.586-1.307A20.263,20.263,0,0,1,67.957,51.444Zm9.665-6.3H72.775a23.6,23.6,0,0,0,4.974-7.16,7.216,7.216,0,0,0,5.343-1.2q.117.651.253,1.276A5.852,5.852,0,0,1,77.622,45.143Z" transform="translate(-26.007 0)"/></g></g></svg>