<svg xmlns="http://www.w3.org/2000/svg" width="24.211" height="18.811" viewBox="0 0 24.211 18.811"><defs><style>.a{fill:#fbca9a;}</style></defs><g transform="translate(0 -39.159)"><path class="a" d="M4.987,46.618a5.333,5.333,0,0,1,4.431-3.882.479.479,0,0,0,.338-.127.347.347,0,0,0,.211-.211,2.014,2.014,0,0,0-.76-2.87c-1.224-.886-3.165,0-4.136.8C2.624,42.356.134,45.858.261,49.192a13.955,13.955,0,0,0,.3,6.625A3.122,3.122,0,0,0,3.468,57.8c1.266.084,3.882.464,5.022-.3S9.714,55.269,9.84,54c.127-1.393.506-4.009-.675-5.106C7.983,47.842,4.607,48.981,4.987,46.618Z" transform="translate(0 0)"/><path class="a" d="M206.947,46.618a5.333,5.333,0,0,1,4.431-3.882.479.479,0,0,0,.338-.127.347.347,0,0,0,.211-.211,2.014,2.014,0,0,0-.76-2.87c-1.224-.886-3.165,0-4.136.8-2.448,2.026-4.937,5.528-4.811,8.862a13.956,13.956,0,0,0,.3,6.625,3.122,3.122,0,0,0,2.912,1.983c1.266.084,3.882.464,5.022-.3s1.224-2.237,1.35-3.5c.127-1.393.506-4.009-.675-5.106C209.943,47.842,206.525,48.981,206.947,46.618Z" transform="translate(-188.034 0)"/></g></svg>