<svg xmlns="http://www.w3.org/2000/svg" width="58.001" height="53.923" viewBox="0 0 58.001 53.923"><defs><style>.a{fill:#fff;}</style></defs><g transform="translate(0 0)"><path class="a" d="M48.939,0H9.063A9.073,9.073,0,0,0,0,9.062V40.782a9.073,9.073,0,0,0,9.063,9.063H39.989a2.266,2.266,0,1,0,0-4.531H31.644l-5.209-6.758,16.508-21L54.056,29.841A2.265,2.265,0,0,0,58,28.321V9.062A9.073,9.073,0,0,0,48.939,0ZM53.47,22.44,44.5,12.527a2.266,2.266,0,0,0-3.461.12L23.581,34.853l-5.927-7.689a2.266,2.266,0,0,0-1.794-.882h0a2.266,2.266,0,0,0-1.794.884L9.078,33.648a2.266,2.266,0,0,0,3.592,2.763l3.192-4.15L25.923,45.313H9.063a4.537,4.537,0,0,1-4.531-4.531V9.062A4.537,4.537,0,0,1,9.063,4.531H48.939A4.537,4.537,0,0,1,53.47,9.062Zm0,0"/><path class="a" d="M86.8,72a6.8,6.8,0,1,0,6.8,6.8A6.8,6.8,0,0,0,86.8,72Zm0,9.063A2.266,2.266,0,1,1,89.063,78.8,2.268,2.268,0,0,1,86.8,81.063Zm0,0" transform="translate(-70.937 -63.844)"/><path class="a" d="M366.081,289.692l-.02-.02a5.647,5.647,0,0,0-8.013-.01l-4.374,4.315a2.266,2.266,0,0,0,3.182,3.226l2.928-2.888v12.716a2.266,2.266,0,1,0,4.531,0V294.384l2.8,2.895a2.266,2.266,0,1,0,3.256-3.152Zm0,0" transform="translate(-313.01 -255.374)"/></g></svg>